<?xml version="1.0" encoding="utf-8" standalone="no"?>
<!DOCTYPE svg PUBLIC "-//W3C//DTD SVG 1.1//EN"
  "http://www.w3.org/Graphics/SVG/1.1/DTD/svg11.dtd">
<!-- Created with matplotlib (https://matplotlib.org/) -->
<svg height="504pt" version="1.1" viewBox="0 0 1008 504" width="1008pt" xmlns="http://www.w3.org/2000/svg" xmlns:xlink="http://www.w3.org/1999/xlink">
 <metadata>
  <rdf:RDF xmlns:cc="http://creativecommons.org/ns#" xmlns:dc="http://purl.org/dc/elements/1.1/" xmlns:rdf="http://www.w3.org/1999/02/22-rdf-syntax-ns#">
   <cc:Work>
    <dc:type rdf:resource="http://purl.org/dc/dcmitype/StillImage"/>
    <dc:date>2021-02-25T21:55:02.947921</dc:date>
    <dc:format>image/svg+xml</dc:format>
    <dc:creator>
     <cc:Agent>
      <dc:title>Matplotlib v3.3.3, https://matplotlib.org/</dc:title>
     </cc:Agent>
    </dc:creator>
   </cc:Work>
  </rdf:RDF>
 </metadata>
 <defs>
  <style type="text/css">*{stroke-linecap:butt;stroke-linejoin:round;}</style>
 </defs>
 <g id="figure_1">
  <g id="patch_1">
   <path d="M 0 504 
L 1008 504 
L 1008 0 
L 0 0 
z
" style="fill:none;"/>
  </g>
  <g id="axes_1">
   <g id="patch_2">
    <path d="M 126 250.904348 
L 312 250.904348 
L 312 75.6 
L 126 75.6 
z
" style="fill:#eaeaf2;"/>
   </g>
   <g id="matplotlib.axis_1">
    <g id="xtick_1">
     <g id="line2d_1">
      <path clip-path="url(#p8405c293f8)" d="M 126 250.904348 
L 126 75.6 
" style="fill:none;stroke:#ffffff;stroke-linecap:round;"/>
     </g>
     <g id="line2d_2"/>
    </g>
    <g id="xtick_2">
     <g id="line2d_3">
      <path clip-path="url(#p8405c293f8)" d="M 176.645805 250.904348 
L 176.645805 75.6 
" style="fill:none;stroke:#ffffff;stroke-linecap:round;"/>
     </g>
     <g id="line2d_4"/>
    </g>
    <g id="xtick_3">
     <g id="line2d_5">
      <path clip-path="url(#p8405c293f8)" d="M 227.291609 250.904348 
L 227.291609 75.6 
" style="fill:none;stroke:#ffffff;stroke-linecap:round;"/>
     </g>
     <g id="line2d_6"/>
    </g>
    <g id="xtick_4">
     <g id="line2d_7">
      <path clip-path="url(#p8405c293f8)" d="M 277.937414 250.904348 
L 277.937414 75.6 
" style="fill:none;stroke:#ffffff;stroke-linecap:round;"/>
     </g>
     <g id="line2d_8"/>
    </g>
   </g>
   <g id="matplotlib.axis_2">
    <g id="ytick_1">
     <g id="line2d_9">
      <path clip-path="url(#p8405c293f8)" d="M 126 89.318756 
L 312 89.318756 
" style="fill:none;stroke:#ffffff;stroke-linecap:round;"/>
     </g>
     <g id="line2d_10"/>
     <g id="text_1">
      <!-- episode -->
      <g style="fill:#262626;" transform="translate(66.460156 94.687116)scale(0.15 -0.15)">
       <defs>
        <path d="M 42.09375 16.703125 
L 51.171875 15.578125 
Q 49.03125 7.625 43.21875 3.21875 
Q 37.40625 -1.171875 28.375 -1.171875 
Q 17 -1.171875 10.328125 5.828125 
Q 3.65625 12.84375 3.65625 25.484375 
Q 3.65625 38.578125 10.390625 45.796875 
Q 17.140625 53.03125 27.875 53.03125 
Q 38.28125 53.03125 44.875 45.953125 
Q 51.46875 38.875 51.46875 26.03125 
Q 51.46875 25.25 51.421875 23.6875 
L 12.75 23.6875 
Q 13.234375 15.140625 17.578125 10.59375 
Q 21.921875 6.0625 28.421875 6.0625 
Q 33.25 6.0625 36.671875 8.59375 
Q 40.09375 11.140625 42.09375 16.703125 
z
M 13.234375 30.90625 
L 42.1875 30.90625 
Q 41.609375 37.453125 38.875 40.71875 
Q 34.671875 45.796875 27.984375 45.796875 
Q 21.921875 45.796875 17.796875 41.75 
Q 13.671875 37.703125 13.234375 30.90625 
z
" id="ArialMT-101"/>
        <path d="M 6.59375 -19.875 
L 6.59375 51.859375 
L 14.59375 51.859375 
L 14.59375 45.125 
Q 17.4375 49.078125 21 51.046875 
Q 24.5625 53.03125 29.640625 53.03125 
Q 36.28125 53.03125 41.359375 49.609375 
Q 46.4375 46.1875 49.015625 39.953125 
Q 51.609375 33.734375 51.609375 26.3125 
Q 51.609375 18.359375 48.75 11.984375 
Q 45.90625 5.609375 40.453125 2.21875 
Q 35.015625 -1.171875 29 -1.171875 
Q 24.609375 -1.171875 21.109375 0.6875 
Q 17.625 2.546875 15.375 5.375 
L 15.375 -19.875 
z
M 14.546875 25.640625 
Q 14.546875 15.625 18.59375 10.84375 
Q 22.65625 6.0625 28.421875 6.0625 
Q 34.28125 6.0625 38.453125 11.015625 
Q 42.625 15.96875 42.625 26.375 
Q 42.625 36.28125 38.546875 41.203125 
Q 34.46875 46.140625 28.8125 46.140625 
Q 23.1875 46.140625 18.859375 40.890625 
Q 14.546875 35.640625 14.546875 25.640625 
z
" id="ArialMT-112"/>
        <path d="M 6.640625 61.46875 
L 6.640625 71.578125 
L 15.4375 71.578125 
L 15.4375 61.46875 
z
M 6.640625 0 
L 6.640625 51.859375 
L 15.4375 51.859375 
L 15.4375 0 
z
" id="ArialMT-105"/>
        <path d="M 3.078125 15.484375 
L 11.765625 16.84375 
Q 12.5 11.625 15.84375 8.84375 
Q 19.1875 6.0625 25.203125 6.0625 
Q 31.25 6.0625 34.171875 8.515625 
Q 37.109375 10.984375 37.109375 14.3125 
Q 37.109375 17.28125 34.515625 19 
Q 32.71875 20.171875 25.53125 21.96875 
Q 15.875 24.421875 12.140625 26.203125 
Q 8.40625 27.984375 6.46875 31.125 
Q 4.546875 34.28125 4.546875 38.09375 
Q 4.546875 41.546875 6.125 44.5 
Q 7.71875 47.46875 10.453125 49.421875 
Q 12.5 50.921875 16.03125 51.96875 
Q 19.578125 53.03125 23.640625 53.03125 
Q 29.734375 53.03125 34.34375 51.265625 
Q 38.96875 49.515625 41.15625 46.5 
Q 43.359375 43.5 44.1875 38.484375 
L 35.59375 37.3125 
Q 35.015625 41.3125 32.203125 43.546875 
Q 29.390625 45.796875 24.265625 45.796875 
Q 18.21875 45.796875 15.625 43.796875 
Q 13.03125 41.796875 13.03125 39.109375 
Q 13.03125 37.40625 14.109375 36.03125 
Q 15.1875 34.625 17.484375 33.6875 
Q 18.796875 33.203125 25.25 31.453125 
Q 34.578125 28.953125 38.25 27.359375 
Q 41.9375 25.78125 44.03125 22.75 
Q 46.140625 19.734375 46.140625 15.234375 
Q 46.140625 10.84375 43.578125 6.953125 
Q 41.015625 3.078125 36.171875 0.953125 
Q 31.34375 -1.171875 25.25 -1.171875 
Q 15.140625 -1.171875 9.84375 3.03125 
Q 4.546875 7.234375 3.078125 15.484375 
z
" id="ArialMT-115"/>
        <path d="M 3.328125 25.921875 
Q 3.328125 40.328125 11.328125 47.265625 
Q 18.015625 53.03125 27.640625 53.03125 
Q 38.328125 53.03125 45.109375 46.015625 
Q 51.90625 39.015625 51.90625 26.65625 
Q 51.90625 16.65625 48.90625 10.90625 
Q 45.90625 5.171875 40.15625 2 
Q 34.421875 -1.171875 27.640625 -1.171875 
Q 16.75 -1.171875 10.03125 5.8125 
Q 3.328125 12.796875 3.328125 25.921875 
z
M 12.359375 25.921875 
Q 12.359375 15.96875 16.703125 11.015625 
Q 21.046875 6.0625 27.640625 6.0625 
Q 34.1875 6.0625 38.53125 11.03125 
Q 42.875 16.015625 42.875 26.21875 
Q 42.875 35.84375 38.5 40.796875 
Q 34.125 45.75 27.640625 45.75 
Q 21.046875 45.75 16.703125 40.8125 
Q 12.359375 35.890625 12.359375 25.921875 
z
" id="ArialMT-111"/>
        <path d="M 40.234375 0 
L 40.234375 6.546875 
Q 35.296875 -1.171875 25.734375 -1.171875 
Q 19.53125 -1.171875 14.328125 2.25 
Q 9.125 5.671875 6.265625 11.796875 
Q 3.421875 17.921875 3.421875 25.875 
Q 3.421875 33.640625 6 39.96875 
Q 8.59375 46.296875 13.765625 49.65625 
Q 18.953125 53.03125 25.34375 53.03125 
Q 30.03125 53.03125 33.6875 51.046875 
Q 37.359375 49.078125 39.65625 45.90625 
L 39.65625 71.578125 
L 48.390625 71.578125 
L 48.390625 0 
z
M 12.453125 25.875 
Q 12.453125 15.921875 16.640625 10.984375 
Q 20.84375 6.0625 26.5625 6.0625 
Q 32.328125 6.0625 36.34375 10.765625 
Q 40.375 15.484375 40.375 25.140625 
Q 40.375 35.796875 36.265625 40.765625 
Q 32.171875 45.75 26.171875 45.75 
Q 20.3125 45.75 16.375 40.96875 
Q 12.453125 36.1875 12.453125 25.875 
z
" id="ArialMT-100"/>
       </defs>
       <use xlink:href="#ArialMT-101"/>
       <use x="55.615234" xlink:href="#ArialMT-112"/>
       <use x="111.230469" xlink:href="#ArialMT-105"/>
       <use x="133.447266" xlink:href="#ArialMT-115"/>
       <use x="183.447266" xlink:href="#ArialMT-111"/>
       <use x="239.0625" xlink:href="#ArialMT-100"/>
       <use x="294.677734" xlink:href="#ArialMT-101"/>
      </g>
     </g>
    </g>
    <g id="ytick_2">
     <g id="line2d_11">
      <path clip-path="url(#p8405c293f8)" d="M 126 105.748405 
L 312 105.748405 
" style="fill:none;stroke:#ffffff;stroke-linecap:round;"/>
     </g>
     <g id="line2d_12"/>
     <g id="text_2">
      <!-- week -->
      <g style="fill:#262626;" transform="translate(83.984375 111.116764)scale(0.15 -0.15)">
       <defs>
        <path d="M 16.15625 0 
L 0.296875 51.859375 
L 9.375 51.859375 
L 17.625 21.921875 
L 20.703125 10.796875 
Q 20.90625 11.625 23.390625 21.484375 
L 31.640625 51.859375 
L 40.671875 51.859375 
L 48.4375 21.78125 
L 51.03125 11.859375 
L 54 21.875 
L 62.890625 51.859375 
L 71.4375 51.859375 
L 55.21875 0 
L 46.09375 0 
L 37.84375 31.0625 
L 35.84375 39.890625 
L 25.34375 0 
z
" id="ArialMT-119"/>
        <path d="M 6.640625 0 
L 6.640625 71.578125 
L 15.4375 71.578125 
L 15.4375 30.765625 
L 36.234375 51.859375 
L 47.609375 51.859375 
L 27.78125 32.625 
L 49.609375 0 
L 38.765625 0 
L 21.625 26.515625 
L 15.4375 20.5625 
L 15.4375 0 
z
" id="ArialMT-107"/>
       </defs>
       <use xlink:href="#ArialMT-119"/>
       <use x="72.216797" xlink:href="#ArialMT-101"/>
       <use x="127.832031" xlink:href="#ArialMT-101"/>
       <use x="183.447266" xlink:href="#ArialMT-107"/>
      </g>
     </g>
    </g>
    <g id="ytick_3">
     <g id="line2d_13">
      <path clip-path="url(#p8405c293f8)" d="M 126 122.178053 
L 312 122.178053 
" style="fill:none;stroke:#ffffff;stroke-linecap:round;"/>
     </g>
     <g id="line2d_14"/>
     <g id="text_3">
      <!-- season -->
      <g style="fill:#262626;" transform="translate(70.634375 127.546412)scale(0.15 -0.15)">
       <defs>
        <path d="M 40.4375 6.390625 
Q 35.546875 2.25 31.03125 0.53125 
Q 26.515625 -1.171875 21.34375 -1.171875 
Q 12.796875 -1.171875 8.203125 3 
Q 3.609375 7.171875 3.609375 13.671875 
Q 3.609375 17.484375 5.34375 20.625 
Q 7.078125 23.78125 9.890625 25.6875 
Q 12.703125 27.59375 16.21875 28.5625 
Q 18.796875 29.25 24.03125 29.890625 
Q 34.671875 31.15625 39.703125 32.90625 
Q 39.75 34.71875 39.75 35.203125 
Q 39.75 40.578125 37.25 42.78125 
Q 33.890625 45.75 27.25 45.75 
Q 21.046875 45.75 18.09375 43.578125 
Q 15.140625 41.40625 13.71875 35.890625 
L 5.125 37.0625 
Q 6.296875 42.578125 8.984375 45.96875 
Q 11.671875 49.359375 16.75 51.1875 
Q 21.828125 53.03125 28.515625 53.03125 
Q 35.15625 53.03125 39.296875 51.46875 
Q 43.453125 49.90625 45.40625 47.53125 
Q 47.359375 45.171875 48.140625 41.546875 
Q 48.578125 39.3125 48.578125 33.453125 
L 48.578125 21.734375 
Q 48.578125 9.46875 49.140625 6.21875 
Q 49.703125 2.984375 51.375 0 
L 42.1875 0 
Q 40.828125 2.734375 40.4375 6.390625 
z
M 39.703125 26.03125 
Q 34.90625 24.078125 25.34375 22.703125 
Q 19.921875 21.921875 17.671875 20.9375 
Q 15.4375 19.96875 14.203125 18.09375 
Q 12.984375 16.21875 12.984375 13.921875 
Q 12.984375 10.40625 15.640625 8.0625 
Q 18.3125 5.71875 23.4375 5.71875 
Q 28.515625 5.71875 32.46875 7.9375 
Q 36.421875 10.15625 38.28125 14.015625 
Q 39.703125 17 39.703125 22.796875 
z
" id="ArialMT-97"/>
        <path d="M 6.59375 0 
L 6.59375 51.859375 
L 14.5 51.859375 
L 14.5 44.484375 
Q 20.21875 53.03125 31 53.03125 
Q 35.6875 53.03125 39.625 51.34375 
Q 43.5625 49.65625 45.515625 46.921875 
Q 47.46875 44.1875 48.25 40.4375 
Q 48.734375 37.984375 48.734375 31.890625 
L 48.734375 0 
L 39.9375 0 
L 39.9375 31.546875 
Q 39.9375 36.921875 38.90625 39.578125 
Q 37.890625 42.234375 35.28125 43.8125 
Q 32.671875 45.40625 29.15625 45.40625 
Q 23.53125 45.40625 19.453125 41.84375 
Q 15.375 38.28125 15.375 28.328125 
L 15.375 0 
z
" id="ArialMT-110"/>
       </defs>
       <use xlink:href="#ArialMT-115"/>
       <use x="50" xlink:href="#ArialMT-101"/>
       <use x="105.615234" xlink:href="#ArialMT-97"/>
       <use x="161.230469" xlink:href="#ArialMT-115"/>
       <use x="211.230469" xlink:href="#ArialMT-111"/>
       <use x="266.845703" xlink:href="#ArialMT-110"/>
      </g>
     </g>
    </g>
    <g id="ytick_4">
     <g id="line2d_15">
      <path clip-path="url(#p8405c293f8)" d="M 126 138.607701 
L 312 138.607701 
" style="fill:none;stroke:#ffffff;stroke-linecap:round;"/>
     </g>
     <g id="line2d_16"/>
     <g id="text_4">
      <!-- year -->
      <g style="fill:#262626;" transform="translate(89.822656 143.88817)scale(0.15 -0.15)">
       <defs>
        <path d="M 6.203125 -19.96875 
L 5.21875 -11.71875 
Q 8.109375 -12.5 10.25 -12.5 
Q 13.1875 -12.5 14.9375 -11.515625 
Q 16.703125 -10.546875 17.828125 -8.796875 
Q 18.65625 -7.46875 20.515625 -2.25 
Q 20.75 -1.515625 21.296875 -0.09375 
L 1.609375 51.859375 
L 11.078125 51.859375 
L 21.875 21.828125 
Q 23.96875 16.109375 25.640625 9.8125 
Q 27.15625 15.875 29.25 21.625 
L 40.328125 51.859375 
L 49.125 51.859375 
L 29.390625 -0.875 
Q 26.21875 -9.421875 24.46875 -12.640625 
Q 22.125 -17 19.09375 -19.015625 
Q 16.0625 -21.046875 11.859375 -21.046875 
Q 9.328125 -21.046875 6.203125 -19.96875 
z
" id="ArialMT-121"/>
        <path d="M 6.5 0 
L 6.5 51.859375 
L 14.40625 51.859375 
L 14.40625 44 
Q 17.4375 49.515625 20 51.265625 
Q 22.5625 53.03125 25.640625 53.03125 
Q 30.078125 53.03125 34.671875 50.203125 
L 31.640625 42.046875 
Q 28.421875 43.953125 25.203125 43.953125 
Q 22.3125 43.953125 20.015625 42.21875 
Q 17.71875 40.484375 16.75 37.40625 
Q 15.28125 32.71875 15.28125 27.15625 
L 15.28125 0 
z
" id="ArialMT-114"/>
       </defs>
       <use xlink:href="#ArialMT-121"/>
       <use x="50" xlink:href="#ArialMT-101"/>
       <use x="105.615234" xlink:href="#ArialMT-97"/>
       <use x="161.230469" xlink:href="#ArialMT-114"/>
      </g>
     </g>
    </g>
    <g id="ytick_5">
     <g id="line2d_17">
      <path clip-path="url(#p8405c293f8)" d="M 126 155.03735 
L 312 155.03735 
" style="fill:none;stroke:#ffffff;stroke-linecap:round;"/>
     </g>
     <g id="line2d_18"/>
     <g id="text_5">
      <!-- minute -->
      <g style="fill:#262626;" transform="translate(73.98125 160.405709)scale(0.15 -0.15)">
       <defs>
        <path d="M 6.59375 0 
L 6.59375 51.859375 
L 14.453125 51.859375 
L 14.453125 44.578125 
Q 16.890625 48.390625 20.9375 50.703125 
Q 25 53.03125 30.171875 53.03125 
Q 35.9375 53.03125 39.625 50.640625 
Q 43.3125 48.25 44.828125 43.953125 
Q 50.984375 53.03125 60.84375 53.03125 
Q 68.5625 53.03125 72.703125 48.75 
Q 76.859375 44.484375 76.859375 35.59375 
L 76.859375 0 
L 68.109375 0 
L 68.109375 32.671875 
Q 68.109375 37.9375 67.25 40.25 
Q 66.40625 42.578125 64.15625 43.984375 
Q 61.921875 45.40625 58.890625 45.40625 
Q 53.421875 45.40625 49.796875 41.765625 
Q 46.1875 38.140625 46.1875 30.125 
L 46.1875 0 
L 37.40625 0 
L 37.40625 33.6875 
Q 37.40625 39.546875 35.25 42.46875 
Q 33.109375 45.40625 28.21875 45.40625 
Q 24.515625 45.40625 21.359375 43.453125 
Q 18.21875 41.5 16.796875 37.734375 
Q 15.375 33.984375 15.375 26.90625 
L 15.375 0 
z
" id="ArialMT-109"/>
        <path d="M 40.578125 0 
L 40.578125 7.625 
Q 34.515625 -1.171875 24.125 -1.171875 
Q 19.53125 -1.171875 15.546875 0.578125 
Q 11.578125 2.34375 9.640625 5 
Q 7.71875 7.671875 6.9375 11.53125 
Q 6.390625 14.109375 6.390625 19.734375 
L 6.390625 51.859375 
L 15.1875 51.859375 
L 15.1875 23.09375 
Q 15.1875 16.21875 15.71875 13.8125 
Q 16.546875 10.359375 19.234375 8.375 
Q 21.921875 6.390625 25.875 6.390625 
Q 29.828125 6.390625 33.296875 8.421875 
Q 36.765625 10.453125 38.203125 13.9375 
Q 39.65625 17.4375 39.65625 24.078125 
L 39.65625 51.859375 
L 48.4375 51.859375 
L 48.4375 0 
z
" id="ArialMT-117"/>
        <path d="M 25.78125 7.859375 
L 27.046875 0.09375 
Q 23.34375 -0.6875 20.40625 -0.6875 
Q 15.625 -0.6875 12.984375 0.828125 
Q 10.359375 2.34375 9.28125 4.8125 
Q 8.203125 7.28125 8.203125 15.1875 
L 8.203125 45.015625 
L 1.765625 45.015625 
L 1.765625 51.859375 
L 8.203125 51.859375 
L 8.203125 64.703125 
L 16.9375 69.96875 
L 16.9375 51.859375 
L 25.78125 51.859375 
L 25.78125 45.015625 
L 16.9375 45.015625 
L 16.9375 14.703125 
Q 16.9375 10.9375 17.40625 9.859375 
Q 17.875 8.796875 18.921875 8.15625 
Q 19.96875 7.515625 21.921875 7.515625 
Q 23.390625 7.515625 25.78125 7.859375 
z
" id="ArialMT-116"/>
       </defs>
       <use xlink:href="#ArialMT-109"/>
       <use x="83.300781" xlink:href="#ArialMT-105"/>
       <use x="105.517578" xlink:href="#ArialMT-110"/>
       <use x="161.132812" xlink:href="#ArialMT-117"/>
       <use x="216.748047" xlink:href="#ArialMT-116"/>
       <use x="244.53125" xlink:href="#ArialMT-101"/>
      </g>
     </g>
    </g>
    <g id="ytick_6">
     <g id="line2d_19">
      <path clip-path="url(#p8405c293f8)" d="M 126 171.466998 
L 312 171.466998 
" style="fill:none;stroke:#ffffff;stroke-linecap:round;"/>
     </g>
     <g id="line2d_20"/>
     <g id="text_6">
      <!-- month -->
      <g style="fill:#262626;" transform="translate(77.314063 176.835357)scale(0.15 -0.15)">
       <defs>
        <path d="M 6.59375 0 
L 6.59375 71.578125 
L 15.375 71.578125 
L 15.375 45.90625 
Q 21.53125 53.03125 30.90625 53.03125 
Q 36.671875 53.03125 40.921875 50.75 
Q 45.171875 48.484375 47 44.484375 
Q 48.828125 40.484375 48.828125 32.859375 
L 48.828125 0 
L 40.046875 0 
L 40.046875 32.859375 
Q 40.046875 39.453125 37.1875 42.453125 
Q 34.328125 45.453125 29.109375 45.453125 
Q 25.203125 45.453125 21.75 43.421875 
Q 18.3125 41.40625 16.84375 37.9375 
Q 15.375 34.46875 15.375 28.375 
L 15.375 0 
z
" id="ArialMT-104"/>
       </defs>
       <use xlink:href="#ArialMT-109"/>
       <use x="83.300781" xlink:href="#ArialMT-111"/>
       <use x="138.916016" xlink:href="#ArialMT-110"/>
       <use x="194.53125" xlink:href="#ArialMT-116"/>
       <use x="222.314453" xlink:href="#ArialMT-104"/>
      </g>
     </g>
    </g>
    <g id="ytick_7">
     <g id="line2d_21">
      <path clip-path="url(#p8405c293f8)" d="M 126 187.896646 
L 312 187.896646 
" style="fill:none;stroke:#ffffff;stroke-linecap:round;"/>
     </g>
     <g id="line2d_22"/>
     <g id="text_7">
      <!-- friend -->
      <g style="fill:#262626;" transform="translate(81.48125 193.265006)scale(0.15 -0.15)">
       <defs>
        <path d="M 8.6875 0 
L 8.6875 45.015625 
L 0.921875 45.015625 
L 0.921875 51.859375 
L 8.6875 51.859375 
L 8.6875 57.375 
Q 8.6875 62.59375 9.625 65.140625 
Q 10.890625 68.5625 14.078125 70.671875 
Q 17.28125 72.796875 23.046875 72.796875 
Q 26.765625 72.796875 31.25 71.921875 
L 29.9375 64.265625 
Q 27.203125 64.75 24.75 64.75 
Q 20.75 64.75 19.09375 63.03125 
Q 17.4375 61.328125 17.4375 56.640625 
L 17.4375 51.859375 
L 27.546875 51.859375 
L 27.546875 45.015625 
L 17.4375 45.015625 
L 17.4375 0 
z
" id="ArialMT-102"/>
       </defs>
       <use xlink:href="#ArialMT-102"/>
       <use x="27.783203" xlink:href="#ArialMT-114"/>
       <use x="61.083984" xlink:href="#ArialMT-105"/>
       <use x="83.300781" xlink:href="#ArialMT-101"/>
       <use x="138.916016" xlink:href="#ArialMT-110"/>
       <use x="194.53125" xlink:href="#ArialMT-100"/>
      </g>
     </g>
    </g>
    <g id="ytick_8">
     <g id="line2d_23">
      <path clip-path="url(#p8405c293f8)" d="M 126 204.326295 
L 312 204.326295 
" style="fill:none;stroke:#ffffff;stroke-linecap:round;"/>
     </g>
     <g id="line2d_24"/>
     <g id="text_8">
      <!-- review -->
      <g style="fill:#262626;" transform="translate(75.657031 209.694654)scale(0.15 -0.15)">
       <defs>
        <path d="M 21 0 
L 1.265625 51.859375 
L 10.546875 51.859375 
L 21.6875 20.796875 
Q 23.484375 15.765625 25 10.359375 
Q 26.171875 14.453125 28.265625 20.21875 
L 39.796875 51.859375 
L 48.828125 51.859375 
L 29.203125 0 
z
" id="ArialMT-118"/>
       </defs>
       <use xlink:href="#ArialMT-114"/>
       <use x="33.300781" xlink:href="#ArialMT-101"/>
       <use x="88.916016" xlink:href="#ArialMT-118"/>
       <use x="138.916016" xlink:href="#ArialMT-105"/>
       <use x="161.132812" xlink:href="#ArialMT-101"/>
       <use x="216.748047" xlink:href="#ArialMT-119"/>
      </g>
     </g>
    </g>
    <g id="ytick_9">
     <g id="line2d_25">
      <path clip-path="url(#p8405c293f8)" d="M 126 220.755943 
L 312 220.755943 
" style="fill:none;stroke:#ffffff;stroke-linecap:round;"/>
     </g>
     <g id="line2d_26"/>
     <g id="text_9">
      <!-- series -->
      <g style="fill:#262626;" transform="translate(78.989844 226.124302)scale(0.15 -0.15)">
       <use xlink:href="#ArialMT-115"/>
       <use x="50" xlink:href="#ArialMT-101"/>
       <use x="105.615234" xlink:href="#ArialMT-114"/>
       <use x="138.916016" xlink:href="#ArialMT-105"/>
       <use x="161.132812" xlink:href="#ArialMT-101"/>
       <use x="216.748047" xlink:href="#ArialMT-115"/>
      </g>
     </g>
    </g>
    <g id="ytick_10">
     <g id="line2d_27">
      <path clip-path="url(#p8405c293f8)" d="M 126 237.185591 
L 312 237.185591 
" style="fill:none;stroke:#ffffff;stroke-linecap:round;"/>
     </g>
     <g id="line2d_28"/>
     <g id="text_10">
      <!-- point -->
      <g style="fill:#262626;" transform="translate(86.475781 242.553951)scale(0.15 -0.15)">
       <use xlink:href="#ArialMT-112"/>
       <use x="55.615234" xlink:href="#ArialMT-111"/>
       <use x="111.230469" xlink:href="#ArialMT-105"/>
       <use x="133.447266" xlink:href="#ArialMT-110"/>
       <use x="189.0625" xlink:href="#ArialMT-116"/>
      </g>
     </g>
    </g>
   </g>
   <g id="patch_3">
    <path clip-path="url(#p8405c293f8)" d="M 126 83.568379 
L 303.142857 83.568379 
L 303.142857 95.069133 
L 126 95.069133 
z
" style="fill:#4c72b0;"/>
   </g>
   <g id="patch_4">
    <path clip-path="url(#p8405c293f8)" d="M 126 99.998028 
L 129.669715 99.998028 
L 129.669715 111.498782 
L 126 111.498782 
z
" style="fill:#4c72b0;"/>
   </g>
   <g id="patch_5">
    <path clip-path="url(#p8405c293f8)" d="M 126 116.427676 
L 129.434812 116.427676 
L 129.434812 127.92843 
L 126 127.92843 
z
" style="fill:#4c72b0;"/>
   </g>
   <g id="patch_6">
    <path clip-path="url(#p8405c293f8)" d="M 126 132.857324 
L 128.71953 132.857324 
L 128.71953 144.358078 
L 126 144.358078 
z
" style="fill:#4c72b0;"/>
   </g>
   <g id="patch_7">
    <path clip-path="url(#p8405c293f8)" d="M 126 149.286973 
L 128.59097 149.286973 
L 128.59097 160.787727 
L 126 160.787727 
z
" style="fill:#4c72b0;"/>
   </g>
   <g id="patch_8">
    <path clip-path="url(#p8405c293f8)" d="M 126 165.716621 
L 128.145798 165.716621 
L 128.145798 177.217375 
L 126 177.217375 
z
" style="fill:#4c72b0;"/>
   </g>
   <g id="patch_9">
    <path clip-path="url(#p8405c293f8)" d="M 126 182.14627 
L 128.121573 182.14627 
L 128.121573 193.647023 
L 126 193.647023 
z
" style="fill:#4c72b0;"/>
   </g>
   <g id="patch_10">
    <path clip-path="url(#p8405c293f8)" d="M 126 198.575918 
L 128.093201 198.575918 
L 128.093201 210.076672 
L 126 210.076672 
z
" style="fill:#4c72b0;"/>
   </g>
   <g id="patch_11">
    <path clip-path="url(#p8405c293f8)" d="M 126 215.005566 
L 127.948015 215.005566 
L 127.948015 226.50632 
L 126 226.50632 
z
" style="fill:#4c72b0;"/>
   </g>
   <g id="patch_12">
    <path clip-path="url(#p8405c293f8)" d="M 126 231.435215 
L 127.838139 231.435215 
L 127.838139 242.935968 
L 126 242.935968 
z
" style="fill:#4c72b0;"/>
   </g>
   <g id="patch_13">
    <path d="M 126 250.904348 
L 312 250.904348 
" style="fill:none;"/>
   </g>
   <g id="text_11">
    <!-- Topic 1 -->
    <g style="fill:#262626;" transform="translate(187.321875 69.6)scale(0.2 -0.2)">
     <defs>
      <path d="M 25.921875 0 
L 25.921875 63.140625 
L 2.34375 63.140625 
L 2.34375 71.578125 
L 59.078125 71.578125 
L 59.078125 63.140625 
L 35.40625 63.140625 
L 35.40625 0 
z
" id="ArialMT-84"/>
      <path d="M 40.4375 19 
L 49.078125 17.875 
Q 47.65625 8.9375 41.8125 3.875 
Q 35.984375 -1.171875 27.484375 -1.171875 
Q 16.84375 -1.171875 10.375 5.78125 
Q 3.90625 12.75 3.90625 25.734375 
Q 3.90625 34.125 6.6875 40.421875 
Q 9.46875 46.734375 15.15625 49.875 
Q 20.84375 53.03125 27.546875 53.03125 
Q 35.984375 53.03125 41.359375 48.75 
Q 46.734375 44.484375 48.25 36.625 
L 39.703125 35.296875 
Q 38.484375 40.53125 35.375 43.15625 
Q 32.28125 45.796875 27.875 45.796875 
Q 21.234375 45.796875 17.078125 41.03125 
Q 12.9375 36.28125 12.9375 25.984375 
Q 12.9375 15.53125 16.9375 10.796875 
Q 20.953125 6.0625 27.390625 6.0625 
Q 32.5625 6.0625 36.03125 9.234375 
Q 39.5 12.40625 40.4375 19 
z
" id="ArialMT-99"/>
      <path id="ArialMT-32"/>
      <path d="M 37.25 0 
L 28.46875 0 
L 28.46875 56 
Q 25.296875 52.984375 20.140625 49.953125 
Q 14.984375 46.921875 10.890625 45.40625 
L 10.890625 53.90625 
Q 18.265625 57.375 23.78125 62.296875 
Q 29.296875 67.234375 31.59375 71.875 
L 37.25 71.875 
z
" id="ArialMT-49"/>
     </defs>
     <use xlink:href="#ArialMT-84"/>
     <use x="49.958984" xlink:href="#ArialMT-111"/>
     <use x="105.574219" xlink:href="#ArialMT-112"/>
     <use x="161.189453" xlink:href="#ArialMT-105"/>
     <use x="183.40625" xlink:href="#ArialMT-99"/>
     <use x="233.40625" xlink:href="#ArialMT-32"/>
     <use x="261.189453" xlink:href="#ArialMT-49"/>
    </g>
   </g>
  </g>
  <g id="axes_2">
   <g id="patch_14">
    <path d="M 423.6 250.904348 
L 609.6 250.904348 
L 609.6 75.6 
L 423.6 75.6 
z
" style="fill:#eaeaf2;"/>
   </g>
   <g id="matplotlib.axis_3">
    <g id="xtick_5">
     <g id="line2d_29">
      <path clip-path="url(#pd3b2043990)" d="M 423.6 250.904348 
L 423.6 75.6 
" style="fill:none;stroke:#ffffff;stroke-linecap:round;"/>
     </g>
     <g id="line2d_30"/>
    </g>
    <g id="xtick_6">
     <g id="line2d_31">
      <path clip-path="url(#pd3b2043990)" d="M 474.245805 250.904348 
L 474.245805 75.6 
" style="fill:none;stroke:#ffffff;stroke-linecap:round;"/>
     </g>
     <g id="line2d_32"/>
    </g>
    <g id="xtick_7">
     <g id="line2d_33">
      <path clip-path="url(#pd3b2043990)" d="M 524.891609 250.904348 
L 524.891609 75.6 
" style="fill:none;stroke:#ffffff;stroke-linecap:round;"/>
     </g>
     <g id="line2d_34"/>
    </g>
    <g id="xtick_8">
     <g id="line2d_35">
      <path clip-path="url(#pd3b2043990)" d="M 575.537414 250.904348 
L 575.537414 75.6 
" style="fill:none;stroke:#ffffff;stroke-linecap:round;"/>
     </g>
     <g id="line2d_36"/>
    </g>
   </g>
   <g id="matplotlib.axis_4">
    <g id="ytick_11">
     <g id="line2d_37">
      <path clip-path="url(#pd3b2043990)" d="M 423.6 89.318756 
L 609.6 89.318756 
" style="fill:none;stroke:#ffffff;stroke-linecap:round;"/>
     </g>
     <g id="line2d_38"/>
     <g id="text_12">
      <!-- time -->
      <g style="fill:#262626;" transform="translate(388.264063 94.687116)scale(0.15 -0.15)">
       <use xlink:href="#ArialMT-116"/>
       <use x="27.783203" xlink:href="#ArialMT-105"/>
       <use x="50" xlink:href="#ArialMT-109"/>
       <use x="133.300781" xlink:href="#ArialMT-101"/>
      </g>
     </g>
    </g>
    <g id="ytick_12">
     <g id="line2d_39">
      <path clip-path="url(#pd3b2043990)" d="M 423.6 105.748405 
L 609.6 105.748405 
" style="fill:none;stroke:#ffffff;stroke-linecap:round;"/>
     </g>
     <g id="line2d_40"/>
     <g id="text_13">
      <!-- year -->
      <g style="fill:#262626;" transform="translate(387.422656 111.028873)scale(0.15 -0.15)">
       <use xlink:href="#ArialMT-121"/>
       <use x="50" xlink:href="#ArialMT-101"/>
       <use x="105.615234" xlink:href="#ArialMT-97"/>
       <use x="161.230469" xlink:href="#ArialMT-114"/>
      </g>
     </g>
    </g>
    <g id="ytick_13">
     <g id="line2d_41">
      <path clip-path="url(#pd3b2043990)" d="M 423.6 122.178053 
L 609.6 122.178053 
" style="fill:none;stroke:#ffffff;stroke-linecap:round;"/>
     </g>
     <g id="line2d_42"/>
     <g id="text_14">
      <!-- review -->
      <g style="fill:#262626;" transform="translate(373.257031 127.546412)scale(0.15 -0.15)">
       <use xlink:href="#ArialMT-114"/>
       <use x="33.300781" xlink:href="#ArialMT-101"/>
       <use x="88.916016" xlink:href="#ArialMT-118"/>
       <use x="138.916016" xlink:href="#ArialMT-105"/>
       <use x="161.132812" xlink:href="#ArialMT-101"/>
       <use x="216.748047" xlink:href="#ArialMT-119"/>
      </g>
     </g>
    </g>
    <g id="ytick_14">
     <g id="line2d_43">
      <path clip-path="url(#pd3b2043990)" d="M 423.6 138.607701 
L 609.6 138.607701 
" style="fill:none;stroke:#ffffff;stroke-linecap:round;"/>
     </g>
     <g id="line2d_44"/>
     <g id="text_15">
      <!-- friend -->
      <g style="fill:#262626;" transform="translate(379.08125 143.976061)scale(0.15 -0.15)">
       <use xlink:href="#ArialMT-102"/>
       <use x="27.783203" xlink:href="#ArialMT-114"/>
       <use x="61.083984" xlink:href="#ArialMT-105"/>
       <use x="83.300781" xlink:href="#ArialMT-101"/>
       <use x="138.916016" xlink:href="#ArialMT-110"/>
       <use x="194.53125" xlink:href="#ArialMT-100"/>
      </g>
     </g>
    </g>
    <g id="ytick_15">
     <g id="line2d_45">
      <path clip-path="url(#pd3b2043990)" d="M 423.6 155.03735 
L 609.6 155.03735 
" style="fill:none;stroke:#ffffff;stroke-linecap:round;"/>
     </g>
     <g id="line2d_46"/>
     <g id="text_16">
      <!-- movie -->
      <g style="fill:#262626;" transform="translate(376.589844 160.405709)scale(0.15 -0.15)">
       <use xlink:href="#ArialMT-109"/>
       <use x="83.300781" xlink:href="#ArialMT-111"/>
       <use x="138.916016" xlink:href="#ArialMT-118"/>
       <use x="188.916016" xlink:href="#ArialMT-105"/>
       <use x="211.132812" xlink:href="#ArialMT-101"/>
      </g>
     </g>
    </g>
    <g id="ytick_16">
     <g id="line2d_47">
      <path clip-path="url(#pd3b2043990)" d="M 423.6 171.466998 
L 609.6 171.466998 
" style="fill:none;stroke:#ffffff;stroke-linecap:round;"/>
     </g>
     <g id="line2d_48"/>
     <g id="text_17">
      <!-- book -->
      <g style="fill:#262626;" transform="translate(384.075781 176.835357)scale(0.15 -0.15)">
       <defs>
        <path d="M 14.703125 0 
L 6.546875 0 
L 6.546875 71.578125 
L 15.328125 71.578125 
L 15.328125 46.046875 
Q 20.90625 53.03125 29.546875 53.03125 
Q 34.328125 53.03125 38.59375 51.09375 
Q 42.875 49.171875 45.625 45.671875 
Q 48.390625 42.1875 49.953125 37.25 
Q 51.515625 32.328125 51.515625 26.703125 
Q 51.515625 13.375 44.921875 6.09375 
Q 38.328125 -1.171875 29.109375 -1.171875 
Q 19.921875 -1.171875 14.703125 6.5 
z
M 14.59375 26.3125 
Q 14.59375 17 17.140625 12.84375 
Q 21.296875 6.0625 28.375 6.0625 
Q 34.125 6.0625 38.328125 11.0625 
Q 42.53125 16.0625 42.53125 25.984375 
Q 42.53125 36.140625 38.5 40.96875 
Q 34.46875 45.796875 28.765625 45.796875 
Q 23 45.796875 18.796875 40.796875 
Q 14.59375 35.796875 14.59375 26.3125 
z
" id="ArialMT-98"/>
       </defs>
       <use xlink:href="#ArialMT-98"/>
       <use x="55.615234" xlink:href="#ArialMT-111"/>
       <use x="111.230469" xlink:href="#ArialMT-111"/>
       <use x="166.845703" xlink:href="#ArialMT-107"/>
      </g>
     </g>
    </g>
    <g id="ytick_17">
     <g id="line2d_49">
      <path clip-path="url(#pd3b2043990)" d="M 423.6 187.896646 
L 609.6 187.896646 
" style="fill:none;stroke:#ffffff;stroke-linecap:round;"/>
     </g>
     <g id="line2d_50"/>
     <g id="text_18">
      <!-- world -->
      <g style="fill:#262626;" transform="translate(380.757031 193.265006)scale(0.15 -0.15)">
       <defs>
        <path d="M 6.390625 0 
L 6.390625 71.578125 
L 15.1875 71.578125 
L 15.1875 0 
z
" id="ArialMT-108"/>
       </defs>
       <use xlink:href="#ArialMT-119"/>
       <use x="72.216797" xlink:href="#ArialMT-111"/>
       <use x="127.832031" xlink:href="#ArialMT-114"/>
       <use x="161.132812" xlink:href="#ArialMT-108"/>
       <use x="183.349609" xlink:href="#ArialMT-100"/>
      </g>
     </g>
    </g>
    <g id="ytick_18">
     <g id="line2d_51">
      <path clip-path="url(#pd3b2043990)" d="M 423.6 204.326295 
L 609.6 204.326295 
" style="fill:none;stroke:#ffffff;stroke-linecap:round;"/>
     </g>
     <g id="line2d_52"/>
     <g id="text_19">
      <!-- information -->
      <g style="fill:#262626;" transform="translate(342.403906 209.694654)scale(0.15 -0.15)">
       <use xlink:href="#ArialMT-105"/>
       <use x="22.216797" xlink:href="#ArialMT-110"/>
       <use x="77.832031" xlink:href="#ArialMT-102"/>
       <use x="105.615234" xlink:href="#ArialMT-111"/>
       <use x="161.230469" xlink:href="#ArialMT-114"/>
       <use x="194.53125" xlink:href="#ArialMT-109"/>
       <use x="277.832031" xlink:href="#ArialMT-97"/>
       <use x="333.447266" xlink:href="#ArialMT-116"/>
       <use x="361.230469" xlink:href="#ArialMT-105"/>
       <use x="383.447266" xlink:href="#ArialMT-111"/>
       <use x="439.0625" xlink:href="#ArialMT-110"/>
      </g>
     </g>
    </g>
    <g id="ytick_19">
     <g id="line2d_53">
      <path clip-path="url(#pd3b2043990)" d="M 423.6 220.755943 
L 609.6 220.755943 
" style="fill:none;stroke:#ffffff;stroke-linecap:round;"/>
     </g>
     <g id="line2d_54"/>
     <g id="text_20">
      <!-- star -->
      <g style="fill:#262626;" transform="translate(391.596875 226.124302)scale(0.15 -0.15)">
       <use xlink:href="#ArialMT-115"/>
       <use x="50" xlink:href="#ArialMT-116"/>
       <use x="77.783203" xlink:href="#ArialMT-97"/>
       <use x="133.398438" xlink:href="#ArialMT-114"/>
      </g>
     </g>
    </g>
    <g id="ytick_20">
     <g id="line2d_55">
      <path clip-path="url(#pd3b2043990)" d="M 423.6 237.185591 
L 609.6 237.185591 
" style="fill:none;stroke:#ffffff;stroke-linecap:round;"/>
     </g>
     <g id="line2d_56"/>
     <g id="text_21">
      <!-- laugh -->
      <g style="fill:#262626;" transform="translate(379.901563 242.553951)scale(0.15 -0.15)">
       <defs>
        <path d="M 4.984375 -4.296875 
L 13.53125 -5.5625 
Q 14.0625 -9.515625 16.5 -11.328125 
Q 19.78125 -13.765625 25.4375 -13.765625 
Q 31.546875 -13.765625 34.859375 -11.328125 
Q 38.1875 -8.890625 39.359375 -4.5 
Q 40.046875 -1.8125 39.984375 6.78125 
Q 34.234375 0 25.640625 0 
Q 14.9375 0 9.078125 7.71875 
Q 3.21875 15.4375 3.21875 26.21875 
Q 3.21875 33.640625 5.90625 39.90625 
Q 8.59375 46.1875 13.6875 49.609375 
Q 18.796875 53.03125 25.6875 53.03125 
Q 34.859375 53.03125 40.828125 45.609375 
L 40.828125 51.859375 
L 48.921875 51.859375 
L 48.921875 7.03125 
Q 48.921875 -5.078125 46.453125 -10.125 
Q 44 -15.1875 38.640625 -18.109375 
Q 33.296875 -21.046875 25.484375 -21.046875 
Q 16.21875 -21.046875 10.5 -16.875 
Q 4.78125 -12.703125 4.984375 -4.296875 
z
M 12.25 26.859375 
Q 12.25 16.65625 16.296875 11.96875 
Q 20.359375 7.28125 26.46875 7.28125 
Q 32.515625 7.28125 36.609375 11.9375 
Q 40.71875 16.609375 40.71875 26.5625 
Q 40.71875 36.078125 36.5 40.90625 
Q 32.28125 45.75 26.3125 45.75 
Q 20.453125 45.75 16.34375 40.984375 
Q 12.25 36.234375 12.25 26.859375 
z
" id="ArialMT-103"/>
       </defs>
       <use xlink:href="#ArialMT-108"/>
       <use x="22.216797" xlink:href="#ArialMT-97"/>
       <use x="77.832031" xlink:href="#ArialMT-117"/>
       <use x="133.447266" xlink:href="#ArialMT-103"/>
       <use x="189.0625" xlink:href="#ArialMT-104"/>
      </g>
     </g>
    </g>
   </g>
   <g id="patch_15">
    <path clip-path="url(#pd3b2043990)" d="M 423.6 83.568379 
L 582.832597 83.568379 
L 582.832597 95.069133 
L 423.6 95.069133 
z
" style="fill:#4c72b0;"/>
   </g>
   <g id="patch_16">
    <path clip-path="url(#pd3b2043990)" d="M 423.6 99.998028 
L 429.749156 99.998028 
L 429.749156 111.498782 
L 423.6 111.498782 
z
" style="fill:#4c72b0;"/>
   </g>
   <g id="patch_17">
    <path clip-path="url(#pd3b2043990)" d="M 423.6 116.427676 
L 428.977401 116.427676 
L 428.977401 127.92843 
L 423.6 127.92843 
z
" style="fill:#4c72b0;"/>
   </g>
   <g id="patch_18">
    <path clip-path="url(#pd3b2043990)" d="M 423.6 132.857324 
L 427.747151 132.857324 
L 427.747151 144.358078 
L 423.6 144.358078 
z
" style="fill:#4c72b0;"/>
   </g>
   <g id="patch_19">
    <path clip-path="url(#pd3b2043990)" d="M 423.6 149.286973 
L 427.585769 149.286973 
L 427.585769 160.787727 
L 423.6 160.787727 
z
" style="fill:#4c72b0;"/>
   </g>
   <g id="patch_20">
    <path clip-path="url(#pd3b2043990)" d="M 423.6 165.716621 
L 427.194917 165.716621 
L 427.194917 177.217375 
L 423.6 177.217375 
z
" style="fill:#4c72b0;"/>
   </g>
   <g id="patch_21">
    <path clip-path="url(#pd3b2043990)" d="M 423.6 182.14627 
L 426.714845 182.14627 
L 426.714845 193.647023 
L 423.6 193.647023 
z
" style="fill:#4c72b0;"/>
   </g>
   <g id="patch_22">
    <path clip-path="url(#pd3b2043990)" d="M 423.6 198.575918 
L 426.115534 198.575918 
L 426.115534 210.076672 
L 423.6 210.076672 
z
" style="fill:#4c72b0;"/>
   </g>
   <g id="patch_23">
    <path clip-path="url(#pd3b2043990)" d="M 423.6 215.005566 
L 426.074024 215.005566 
L 426.074024 226.50632 
L 423.6 226.50632 
z
" style="fill:#4c72b0;"/>
   </g>
   <g id="patch_24">
    <path clip-path="url(#pd3b2043990)" d="M 423.6 231.435215 
L 426.044361 231.435215 
L 426.044361 242.935968 
L 423.6 242.935968 
z
" style="fill:#4c72b0;"/>
   </g>
   <g id="patch_25">
    <path d="M 423.6 250.904348 
L 609.6 250.904348 
" style="fill:none;"/>
   </g>
   <g id="text_22">
    <!-- Topic 2 -->
    <g style="fill:#262626;" transform="translate(484.921875 69.6)scale(0.2 -0.2)">
     <defs>
      <path d="M 50.34375 8.453125 
L 50.34375 0 
L 3.03125 0 
Q 2.9375 3.171875 4.046875 6.109375 
Q 5.859375 10.9375 9.828125 15.625 
Q 13.8125 20.3125 21.34375 26.46875 
Q 33.015625 36.03125 37.109375 41.625 
Q 41.21875 47.21875 41.21875 52.203125 
Q 41.21875 57.421875 37.46875 61 
Q 33.734375 64.59375 27.734375 64.59375 
Q 21.390625 64.59375 17.578125 60.78125 
Q 13.765625 56.984375 13.71875 50.25 
L 4.6875 51.171875 
Q 5.609375 61.28125 11.65625 66.578125 
Q 17.71875 71.875 27.9375 71.875 
Q 38.234375 71.875 44.234375 66.15625 
Q 50.25 60.453125 50.25 52 
Q 50.25 47.703125 48.484375 43.546875 
Q 46.734375 39.40625 42.65625 34.8125 
Q 38.578125 30.21875 29.109375 22.21875 
Q 21.1875 15.578125 18.9375 13.203125 
Q 16.703125 10.84375 15.234375 8.453125 
z
" id="ArialMT-50"/>
     </defs>
     <use xlink:href="#ArialMT-84"/>
     <use x="49.958984" xlink:href="#ArialMT-111"/>
     <use x="105.574219" xlink:href="#ArialMT-112"/>
     <use x="161.189453" xlink:href="#ArialMT-105"/>
     <use x="183.40625" xlink:href="#ArialMT-99"/>
     <use x="233.40625" xlink:href="#ArialMT-32"/>
     <use x="261.189453" xlink:href="#ArialMT-50"/>
    </g>
   </g>
  </g>
  <g id="axes_3">
   <g id="patch_26">
    <path d="M 721.2 250.904348 
L 907.2 250.904348 
L 907.2 75.6 
L 721.2 75.6 
z
" style="fill:#eaeaf2;"/>
   </g>
   <g id="matplotlib.axis_5">
    <g id="xtick_9">
     <g id="line2d_57">
      <path clip-path="url(#pd6bd4a7d79)" d="M 721.2 250.904348 
L 721.2 75.6 
" style="fill:none;stroke:#ffffff;stroke-linecap:round;"/>
     </g>
     <g id="line2d_58"/>
    </g>
    <g id="xtick_10">
     <g id="line2d_59">
      <path clip-path="url(#pd6bd4a7d79)" d="M 771.845805 250.904348 
L 771.845805 75.6 
" style="fill:none;stroke:#ffffff;stroke-linecap:round;"/>
     </g>
     <g id="line2d_60"/>
    </g>
    <g id="xtick_11">
     <g id="line2d_61">
      <path clip-path="url(#pd6bd4a7d79)" d="M 822.491609 250.904348 
L 822.491609 75.6 
" style="fill:none;stroke:#ffffff;stroke-linecap:round;"/>
     </g>
     <g id="line2d_62"/>
    </g>
    <g id="xtick_12">
     <g id="line2d_63">
      <path clip-path="url(#pd6bd4a7d79)" d="M 873.137414 250.904348 
L 873.137414 75.6 
" style="fill:none;stroke:#ffffff;stroke-linecap:round;"/>
     </g>
     <g id="line2d_64"/>
    </g>
   </g>
   <g id="matplotlib.axis_6">
    <g id="ytick_21">
     <g id="line2d_65">
      <path clip-path="url(#pd6bd4a7d79)" d="M 721.2 89.318756 
L 907.2 89.318756 
" style="fill:none;stroke:#ffffff;stroke-linecap:round;"/>
     </g>
     <g id="line2d_66"/>
     <g id="text_23">
      <!-- story -->
      <g style="fill:#262626;" transform="translate(681.696875 94.599225)scale(0.15 -0.15)">
       <use xlink:href="#ArialMT-115"/>
       <use x="50" xlink:href="#ArialMT-116"/>
       <use x="77.783203" xlink:href="#ArialMT-111"/>
       <use x="133.398438" xlink:href="#ArialMT-114"/>
       <use x="166.699219" xlink:href="#ArialMT-121"/>
      </g>
     </g>
    </g>
    <g id="ytick_22">
     <g id="line2d_67">
      <path clip-path="url(#pd6bd4a7d79)" d="M 721.2 105.748405 
L 907.2 105.748405 
" style="fill:none;stroke:#ffffff;stroke-linecap:round;"/>
     </g>
     <g id="line2d_68"/>
     <g id="text_24">
      <!-- voice -->
      <g style="fill:#262626;" transform="translate(679.184375 111.116764)scale(0.15 -0.15)">
       <use xlink:href="#ArialMT-118"/>
       <use x="50" xlink:href="#ArialMT-111"/>
       <use x="105.615234" xlink:href="#ArialMT-105"/>
       <use x="127.832031" xlink:href="#ArialMT-99"/>
       <use x="177.832031" xlink:href="#ArialMT-101"/>
      </g>
     </g>
    </g>
    <g id="ytick_23">
     <g id="line2d_69">
      <path clip-path="url(#pd6bd4a7d79)" d="M 721.2 122.178053 
L 907.2 122.178053 
" style="fill:none;stroke:#ffffff;stroke-linecap:round;"/>
     </g>
     <g id="line2d_70"/>
     <g id="text_25">
      <!-- crime -->
      <g style="fill:#262626;" transform="translate(677.536719 127.546412)scale(0.15 -0.15)">
       <use xlink:href="#ArialMT-99"/>
       <use x="50" xlink:href="#ArialMT-114"/>
       <use x="83.300781" xlink:href="#ArialMT-105"/>
       <use x="105.517578" xlink:href="#ArialMT-109"/>
       <use x="188.818359" xlink:href="#ArialMT-101"/>
      </g>
     </g>
    </g>
    <g id="ytick_24">
     <g id="line2d_71">
      <path clip-path="url(#pd6bd4a7d79)" d="M 721.2 138.607701 
L 907.2 138.607701 
" style="fill:none;stroke:#ffffff;stroke-linecap:round;"/>
     </g>
     <g id="line2d_72"/>
     <g id="text_26">
      <!-- share -->
      <g style="fill:#262626;" transform="translate(676.68125 143.976061)scale(0.15 -0.15)">
       <use xlink:href="#ArialMT-115"/>
       <use x="50" xlink:href="#ArialMT-104"/>
       <use x="105.615234" xlink:href="#ArialMT-97"/>
       <use x="161.230469" xlink:href="#ArialMT-114"/>
       <use x="194.53125" xlink:href="#ArialMT-101"/>
      </g>
     </g>
    </g>
    <g id="ytick_25">
     <g id="line2d_73">
      <path clip-path="url(#pd6bd4a7d79)" d="M 721.2 155.03735 
L 907.2 155.03735 
" style="fill:none;stroke:#ffffff;stroke-linecap:round;"/>
     </g>
     <g id="line2d_74"/>
     <g id="text_27">
      <!-- music -->
      <g style="fill:#262626;" transform="translate(675.03125 160.405709)scale(0.15 -0.15)">
       <use xlink:href="#ArialMT-109"/>
       <use x="83.300781" xlink:href="#ArialMT-117"/>
       <use x="138.916016" xlink:href="#ArialMT-115"/>
       <use x="188.916016" xlink:href="#ArialMT-105"/>
       <use x="211.132812" xlink:href="#ArialMT-99"/>
      </g>
     </g>
    </g>
    <g id="ytick_26">
     <g id="line2d_75">
      <path clip-path="url(#pd6bd4a7d79)" d="M 721.2 171.466998 
L 907.2 171.466998 
" style="fill:none;stroke:#ffffff;stroke-linecap:round;"/>
     </g>
     <g id="line2d_76"/>
     <g id="text_28">
      <!-- job -->
      <g style="fill:#262626;" transform="translate(694.184375 176.835357)scale(0.15 -0.15)">
       <defs>
        <path d="M 6.546875 61.375 
L 6.546875 71.578125 
L 15.328125 71.578125 
L 15.328125 61.375 
z
M -4.59375 -20.125 
L -2.9375 -12.640625 
Q -0.296875 -13.328125 1.21875 -13.328125 
Q 3.90625 -13.328125 5.21875 -11.546875 
Q 6.546875 -9.765625 6.546875 -2.640625 
L 6.546875 51.859375 
L 15.328125 51.859375 
L 15.328125 -2.828125 
Q 15.328125 -12.40625 12.84375 -16.15625 
Q 9.671875 -21.046875 2.296875 -21.046875 
Q -1.265625 -21.046875 -4.59375 -20.125 
z
" id="ArialMT-106"/>
       </defs>
       <use xlink:href="#ArialMT-106"/>
       <use x="22.216797" xlink:href="#ArialMT-111"/>
       <use x="77.832031" xlink:href="#ArialMT-98"/>
      </g>
     </g>
    </g>
    <g id="ytick_27">
     <g id="line2d_77">
      <path clip-path="url(#pd6bd4a7d79)" d="M 721.2 187.896646 
L 907.2 187.896646 
" style="fill:none;stroke:#ffffff;stroke-linecap:round;"/>
     </g>
     <g id="line2d_78"/>
     <g id="text_29">
      <!-- history -->
      <g style="fill:#262626;" transform="translate(670.022656 193.265006)scale(0.15 -0.15)">
       <use xlink:href="#ArialMT-104"/>
       <use x="55.615234" xlink:href="#ArialMT-105"/>
       <use x="77.832031" xlink:href="#ArialMT-115"/>
       <use x="127.832031" xlink:href="#ArialMT-116"/>
       <use x="155.615234" xlink:href="#ArialMT-111"/>
       <use x="211.230469" xlink:href="#ArialMT-114"/>
       <use x="244.53125" xlink:href="#ArialMT-121"/>
      </g>
     </g>
    </g>
    <g id="ytick_28">
     <g id="line2d_79">
      <path clip-path="url(#pd6bd4a7d79)" d="M 721.2 204.326295 
L 907.2 204.326295 
" style="fill:none;stroke:#ffffff;stroke-linecap:round;"/>
     </g>
     <g id="line2d_80"/>
     <g id="text_30">
      <!-- season -->
      <g style="fill:#262626;" transform="translate(665.834375 209.694654)scale(0.15 -0.15)">
       <use xlink:href="#ArialMT-115"/>
       <use x="50" xlink:href="#ArialMT-101"/>
       <use x="105.615234" xlink:href="#ArialMT-97"/>
       <use x="161.230469" xlink:href="#ArialMT-115"/>
       <use x="211.230469" xlink:href="#ArialMT-111"/>
       <use x="266.845703" xlink:href="#ArialMT-110"/>
      </g>
     </g>
    </g>
    <g id="ytick_29">
     <g id="line2d_81">
      <path clip-path="url(#pd6bd4a7d79)" d="M 721.2 220.755943 
L 907.2 220.755943 
" style="fill:none;stroke:#ffffff;stroke-linecap:round;"/>
     </g>
     <g id="line2d_82"/>
     <g id="text_31">
      <!-- woman -->
      <g style="fill:#262626;" transform="translate(665.848438 226.124302)scale(0.15 -0.15)">
       <use xlink:href="#ArialMT-119"/>
       <use x="72.216797" xlink:href="#ArialMT-111"/>
       <use x="127.832031" xlink:href="#ArialMT-109"/>
       <use x="211.132812" xlink:href="#ArialMT-97"/>
       <use x="266.748047" xlink:href="#ArialMT-110"/>
      </g>
     </g>
    </g>
    <g id="ytick_30">
     <g id="line2d_83">
      <path clip-path="url(#pd6bd4a7d79)" d="M 721.2 237.185591 
L 907.2 237.185591 
" style="fill:none;stroke:#ffffff;stroke-linecap:round;"/>
     </g>
     <g id="line2d_84"/>
     <g id="text_32">
      <!-- character -->
      <g style="fill:#262626;" transform="translate(651.678125 242.553951)scale(0.15 -0.15)">
       <use xlink:href="#ArialMT-99"/>
       <use x="50" xlink:href="#ArialMT-104"/>
       <use x="105.615234" xlink:href="#ArialMT-97"/>
       <use x="161.230469" xlink:href="#ArialMT-114"/>
       <use x="194.53125" xlink:href="#ArialMT-97"/>
       <use x="250.146484" xlink:href="#ArialMT-99"/>
       <use x="300.146484" xlink:href="#ArialMT-116"/>
       <use x="327.929688" xlink:href="#ArialMT-101"/>
       <use x="383.544922" xlink:href="#ArialMT-114"/>
      </g>
     </g>
    </g>
   </g>
   <g id="patch_27">
    <path clip-path="url(#pd6bd4a7d79)" d="M 721.2 83.568379 
L 846.82946 83.568379 
L 846.82946 95.069133 
L 721.2 95.069133 
z
" style="fill:#4c72b0;"/>
   </g>
   <g id="patch_28">
    <path clip-path="url(#pd6bd4a7d79)" d="M 721.2 99.998028 
L 727.642287 99.998028 
L 727.642287 111.498782 
L 721.2 111.498782 
z
" style="fill:#4c72b0;"/>
   </g>
   <g id="patch_29">
    <path clip-path="url(#pd6bd4a7d79)" d="M 721.2 116.427676 
L 726.036565 116.427676 
L 726.036565 127.92843 
L 721.2 127.92843 
z
" style="fill:#4c72b0;"/>
   </g>
   <g id="patch_30">
    <path clip-path="url(#pd6bd4a7d79)" d="M 721.2 132.857324 
L 725.136401 132.857324 
L 725.136401 144.358078 
L 721.2 144.358078 
z
" style="fill:#4c72b0;"/>
   </g>
   <g id="patch_31">
    <path clip-path="url(#pd6bd4a7d79)" d="M 721.2 149.286973 
L 724.894935 149.286973 
L 724.894935 160.787727 
L 721.2 160.787727 
z
" style="fill:#4c72b0;"/>
   </g>
   <g id="patch_32">
    <path clip-path="url(#pd6bd4a7d79)" d="M 721.2 165.716621 
L 724.667181 165.716621 
L 724.667181 177.217375 
L 721.2 177.217375 
z
" style="fill:#4c72b0;"/>
   </g>
   <g id="patch_33">
    <path clip-path="url(#pd6bd4a7d79)" d="M 721.2 182.14627 
L 724.530488 182.14627 
L 724.530488 193.647023 
L 721.2 193.647023 
z
" style="fill:#4c72b0;"/>
   </g>
   <g id="patch_34">
    <path clip-path="url(#pd6bd4a7d79)" d="M 721.2 198.575918 
L 724.1341 198.575918 
L 724.1341 210.076672 
L 721.2 210.076672 
z
" style="fill:#4c72b0;"/>
   </g>
   <g id="patch_35">
    <path clip-path="url(#pd6bd4a7d79)" d="M 721.2 215.005566 
L 723.797499 215.005566 
L 723.797499 226.50632 
L 721.2 226.50632 
z
" style="fill:#4c72b0;"/>
   </g>
   <g id="patch_36">
    <path clip-path="url(#pd6bd4a7d79)" d="M 721.2 231.435215 
L 723.661959 231.435215 
L 723.661959 242.935968 
L 721.2 242.935968 
z
" style="fill:#4c72b0;"/>
   </g>
   <g id="patch_37">
    <path d="M 721.2 250.904348 
L 907.2 250.904348 
" style="fill:none;"/>
   </g>
   <g id="text_33">
    <!-- Topic 3 -->
    <g style="fill:#262626;" transform="translate(782.521875 69.6)scale(0.2 -0.2)">
     <defs>
      <path d="M 4.203125 18.890625 
L 12.984375 20.0625 
Q 14.5 12.59375 18.140625 9.296875 
Q 21.78125 6 27 6 
Q 33.203125 6 37.46875 10.296875 
Q 41.75 14.59375 41.75 20.953125 
Q 41.75 27 37.796875 30.921875 
Q 33.84375 34.859375 27.734375 34.859375 
Q 25.25 34.859375 21.53125 33.890625 
L 22.515625 41.609375 
Q 23.390625 41.5 23.921875 41.5 
Q 29.546875 41.5 34.03125 44.421875 
Q 38.53125 47.359375 38.53125 53.46875 
Q 38.53125 58.296875 35.25 61.46875 
Q 31.984375 64.65625 26.8125 64.65625 
Q 21.6875 64.65625 18.265625 61.421875 
Q 14.84375 58.203125 13.875 51.765625 
L 5.078125 53.328125 
Q 6.6875 62.15625 12.390625 67.015625 
Q 18.109375 71.875 26.609375 71.875 
Q 32.46875 71.875 37.390625 69.359375 
Q 42.328125 66.84375 44.9375 62.5 
Q 47.5625 58.15625 47.5625 53.265625 
Q 47.5625 48.640625 45.0625 44.828125 
Q 42.578125 41.015625 37.703125 38.765625 
Q 44.046875 37.3125 47.5625 32.6875 
Q 51.078125 28.078125 51.078125 21.140625 
Q 51.078125 11.765625 44.234375 5.25 
Q 37.40625 -1.265625 26.953125 -1.265625 
Q 17.53125 -1.265625 11.296875 4.34375 
Q 5.078125 9.96875 4.203125 18.890625 
z
" id="ArialMT-51"/>
     </defs>
     <use xlink:href="#ArialMT-84"/>
     <use x="49.958984" xlink:href="#ArialMT-111"/>
     <use x="105.574219" xlink:href="#ArialMT-112"/>
     <use x="161.189453" xlink:href="#ArialMT-105"/>
     <use x="183.40625" xlink:href="#ArialMT-99"/>
     <use x="233.40625" xlink:href="#ArialMT-32"/>
     <use x="261.189453" xlink:href="#ArialMT-51"/>
    </g>
   </g>
  </g>
  <g id="axes_4">
   <g id="patch_38">
    <path d="M 126 478.8 
L 312 478.8 
L 312 303.495652 
L 126 303.495652 
z
" style="fill:#eaeaf2;"/>
   </g>
   <g id="matplotlib.axis_7">
    <g id="xtick_13">
     <g id="line2d_85">
      <path clip-path="url(#pe05db54a01)" d="M 126 478.8 
L 126 303.495652 
" style="fill:none;stroke:#ffffff;stroke-linecap:round;"/>
     </g>
     <g id="line2d_86"/>
     <g id="text_34">
      <!-- 0 -->
      <g style="fill:#262626;" transform="translate(121.829297 496.536719)scale(0.15 -0.15)">
       <defs>
        <path d="M 4.15625 35.296875 
Q 4.15625 48 6.765625 55.734375 
Q 9.375 63.484375 14.515625 67.671875 
Q 19.671875 71.875 27.484375 71.875 
Q 33.25 71.875 37.59375 69.546875 
Q 41.9375 67.234375 44.765625 62.859375 
Q 47.609375 58.5 49.21875 52.21875 
Q 50.828125 45.953125 50.828125 35.296875 
Q 50.828125 22.703125 48.234375 14.96875 
Q 45.65625 7.234375 40.5 3 
Q 35.359375 -1.21875 27.484375 -1.21875 
Q 17.140625 -1.21875 11.234375 6.203125 
Q 4.15625 15.140625 4.15625 35.296875 
z
M 13.1875 35.296875 
Q 13.1875 17.671875 17.3125 11.828125 
Q 21.4375 6 27.484375 6 
Q 33.546875 6 37.671875 11.859375 
Q 41.796875 17.71875 41.796875 35.296875 
Q 41.796875 52.984375 37.671875 58.78125 
Q 33.546875 64.59375 27.390625 64.59375 
Q 21.34375 64.59375 17.71875 59.46875 
Q 13.1875 52.9375 13.1875 35.296875 
z
" id="ArialMT-48"/>
       </defs>
       <use xlink:href="#ArialMT-48"/>
      </g>
     </g>
    </g>
    <g id="xtick_14">
     <g id="line2d_87">
      <path clip-path="url(#pe05db54a01)" d="M 176.645805 478.8 
L 176.645805 303.495652 
" style="fill:none;stroke:#ffffff;stroke-linecap:round;"/>
     </g>
     <g id="line2d_88"/>
     <g id="text_35">
      <!-- 2 -->
      <g style="fill:#262626;" transform="translate(172.475101 496.536719)scale(0.15 -0.15)">
       <use xlink:href="#ArialMT-50"/>
      </g>
     </g>
    </g>
    <g id="xtick_15">
     <g id="line2d_89">
      <path clip-path="url(#pe05db54a01)" d="M 227.291609 478.8 
L 227.291609 303.495652 
" style="fill:none;stroke:#ffffff;stroke-linecap:round;"/>
     </g>
     <g id="line2d_90"/>
     <g id="text_36">
      <!-- 4 -->
      <g style="fill:#262626;" transform="translate(223.120906 496.536719)scale(0.15 -0.15)">
       <defs>
        <path d="M 32.328125 0 
L 32.328125 17.140625 
L 1.265625 17.140625 
L 1.265625 25.203125 
L 33.9375 71.578125 
L 41.109375 71.578125 
L 41.109375 25.203125 
L 50.78125 25.203125 
L 50.78125 17.140625 
L 41.109375 17.140625 
L 41.109375 0 
z
M 32.328125 25.203125 
L 32.328125 57.46875 
L 9.90625 25.203125 
z
" id="ArialMT-52"/>
       </defs>
       <use xlink:href="#ArialMT-52"/>
      </g>
     </g>
    </g>
    <g id="xtick_16">
     <g id="line2d_91">
      <path clip-path="url(#pe05db54a01)" d="M 277.937414 478.8 
L 277.937414 303.495652 
" style="fill:none;stroke:#ffffff;stroke-linecap:round;"/>
     </g>
     <g id="line2d_92"/>
     <g id="text_37">
      <!-- 6 -->
      <g style="fill:#262626;" transform="translate(273.766711 496.536719)scale(0.15 -0.15)">
       <defs>
        <path d="M 49.75 54.046875 
L 41.015625 53.375 
Q 39.84375 58.546875 37.703125 60.890625 
Q 34.125 64.65625 28.90625 64.65625 
Q 24.703125 64.65625 21.53125 62.3125 
Q 17.390625 59.28125 14.984375 53.46875 
Q 12.59375 47.65625 12.5 36.921875 
Q 15.671875 41.75 20.265625 44.09375 
Q 24.859375 46.4375 29.890625 46.4375 
Q 38.671875 46.4375 44.84375 39.96875 
Q 51.03125 33.5 51.03125 23.25 
Q 51.03125 16.5 48.125 10.71875 
Q 45.21875 4.9375 40.140625 1.859375 
Q 35.0625 -1.21875 28.609375 -1.21875 
Q 17.625 -1.21875 10.6875 6.859375 
Q 3.765625 14.9375 3.765625 33.5 
Q 3.765625 54.25 11.421875 63.671875 
Q 18.109375 71.875 29.4375 71.875 
Q 37.890625 71.875 43.28125 67.140625 
Q 48.6875 62.40625 49.75 54.046875 
z
M 13.875 23.1875 
Q 13.875 18.65625 15.796875 14.5 
Q 17.71875 10.359375 21.1875 8.171875 
Q 24.65625 6 28.46875 6 
Q 34.03125 6 38.03125 10.484375 
Q 42.046875 14.984375 42.046875 22.703125 
Q 42.046875 30.125 38.078125 34.390625 
Q 34.125 38.671875 28.125 38.671875 
Q 22.171875 38.671875 18.015625 34.390625 
Q 13.875 30.125 13.875 23.1875 
z
" id="ArialMT-54"/>
       </defs>
       <use xlink:href="#ArialMT-54"/>
      </g>
     </g>
    </g>
   </g>
   <g id="matplotlib.axis_8">
    <g id="ytick_31">
     <g id="line2d_93">
      <path clip-path="url(#pe05db54a01)" d="M 126 317.214409 
L 312 317.214409 
" style="fill:none;stroke:#ffffff;stroke-linecap:round;"/>
     </g>
     <g id="line2d_94"/>
     <g id="text_38">
      <!-- work -->
      <g style="fill:#262626;" transform="translate(87.33125 322.582768)scale(0.15 -0.15)">
       <use xlink:href="#ArialMT-119"/>
       <use x="72.216797" xlink:href="#ArialMT-111"/>
       <use x="127.832031" xlink:href="#ArialMT-114"/>
       <use x="161.132812" xlink:href="#ArialMT-107"/>
      </g>
     </g>
    </g>
    <g id="ytick_32">
     <g id="line2d_95">
      <path clip-path="url(#pe05db54a01)" d="M 126 333.644057 
L 312 333.644057 
" style="fill:none;stroke:#ffffff;stroke-linecap:round;"/>
     </g>
     <g id="line2d_96"/>
     <g id="text_39">
      <!-- day -->
      <g style="fill:#262626;" transform="translate(94.817188 339.012416)scale(0.15 -0.15)">
       <use xlink:href="#ArialMT-100"/>
       <use x="55.615234" xlink:href="#ArialMT-97"/>
       <use x="111.230469" xlink:href="#ArialMT-121"/>
      </g>
     </g>
    </g>
    <g id="ytick_33">
     <g id="line2d_97">
      <path clip-path="url(#pe05db54a01)" d="M 126 350.073705 
L 312 350.073705 
" style="fill:none;stroke:#ffffff;stroke-linecap:round;"/>
     </g>
     <g id="line2d_98"/>
     <g id="text_40">
      <!-- job -->
      <g style="fill:#262626;" transform="translate(98.984375 355.442065)scale(0.15 -0.15)">
       <use xlink:href="#ArialMT-106"/>
       <use x="22.216797" xlink:href="#ArialMT-111"/>
       <use x="77.832031" xlink:href="#ArialMT-98"/>
      </g>
     </g>
    </g>
    <g id="ytick_34">
     <g id="line2d_99">
      <path clip-path="url(#pe05db54a01)" d="M 126 366.503354 
L 312 366.503354 
" style="fill:none;stroke:#ffffff;stroke-linecap:round;"/>
     </g>
     <g id="line2d_100"/>
     <g id="text_41">
      <!-- home -->
      <g style="fill:#262626;" transform="translate(81.48125 371.871713)scale(0.15 -0.15)">
       <use xlink:href="#ArialMT-104"/>
       <use x="55.615234" xlink:href="#ArialMT-111"/>
       <use x="111.230469" xlink:href="#ArialMT-109"/>
       <use x="194.53125" xlink:href="#ArialMT-101"/>
      </g>
     </g>
    </g>
    <g id="ytick_35">
     <g id="line2d_101">
      <path clip-path="url(#pe05db54a01)" d="M 126 382.933002 
L 312 382.933002 
" style="fill:none;stroke:#ffffff;stroke-linecap:round;"/>
     </g>
     <g id="line2d_102"/>
     <g id="text_42">
      <!-- year -->
      <g style="fill:#262626;" transform="translate(89.822656 388.213471)scale(0.15 -0.15)">
       <use xlink:href="#ArialMT-121"/>
       <use x="50" xlink:href="#ArialMT-101"/>
       <use x="105.615234" xlink:href="#ArialMT-97"/>
       <use x="161.230469" xlink:href="#ArialMT-114"/>
      </g>
     </g>
    </g>
    <g id="ytick_36">
     <g id="line2d_103">
      <path clip-path="url(#pe05db54a01)" d="M 126 399.36265 
L 312 399.36265 
" style="fill:none;stroke:#ffffff;stroke-linecap:round;"/>
     </g>
     <g id="line2d_104"/>
     <g id="text_43">
      <!-- content -->
      <g style="fill:#262626;" transform="translate(69.8 404.73101)scale(0.15 -0.15)">
       <use xlink:href="#ArialMT-99"/>
       <use x="50" xlink:href="#ArialMT-111"/>
       <use x="105.615234" xlink:href="#ArialMT-110"/>
       <use x="161.230469" xlink:href="#ArialMT-116"/>
       <use x="189.013672" xlink:href="#ArialMT-101"/>
       <use x="244.628906" xlink:href="#ArialMT-110"/>
       <use x="300.244141" xlink:href="#ArialMT-116"/>
      </g>
     </g>
    </g>
    <g id="ytick_37">
     <g id="line2d_105">
      <path clip-path="url(#pe05db54a01)" d="M 126 415.792299 
L 312 415.792299 
" style="fill:none;stroke:#ffffff;stroke-linecap:round;"/>
     </g>
     <g id="line2d_106"/>
     <g id="text_44">
      <!-- commute -->
      <g style="fill:#262626;" transform="translate(57.319531 421.160658)scale(0.15 -0.15)">
       <use xlink:href="#ArialMT-99"/>
       <use x="50" xlink:href="#ArialMT-111"/>
       <use x="105.615234" xlink:href="#ArialMT-109"/>
       <use x="188.916016" xlink:href="#ArialMT-109"/>
       <use x="272.216797" xlink:href="#ArialMT-117"/>
       <use x="327.832031" xlink:href="#ArialMT-116"/>
       <use x="355.615234" xlink:href="#ArialMT-101"/>
      </g>
     </g>
    </g>
    <g id="ytick_38">
     <g id="line2d_107">
      <path clip-path="url(#pe05db54a01)" d="M 126 432.221947 
L 312 432.221947 
" style="fill:none;stroke:#ffffff;stroke-linecap:round;"/>
     </g>
     <g id="line2d_108"/>
     <g id="text_45">
      <!-- lady -->
      <g style="fill:#262626;" transform="translate(91.484375 437.590306)scale(0.15 -0.15)">
       <use xlink:href="#ArialMT-108"/>
       <use x="22.216797" xlink:href="#ArialMT-97"/>
       <use x="77.832031" xlink:href="#ArialMT-100"/>
       <use x="133.447266" xlink:href="#ArialMT-121"/>
      </g>
     </g>
    </g>
    <g id="ytick_39">
     <g id="line2d_109">
      <path clip-path="url(#pe05db54a01)" d="M 126 448.651595 
L 312 448.651595 
" style="fill:none;stroke:#ffffff;stroke-linecap:round;"/>
     </g>
     <g id="line2d_110"/>
     <g id="text_46">
      <!-- drive -->
      <g style="fill:#262626;" transform="translate(86.489844 454.019955)scale(0.15 -0.15)">
       <use xlink:href="#ArialMT-100"/>
       <use x="55.615234" xlink:href="#ArialMT-114"/>
       <use x="88.916016" xlink:href="#ArialMT-105"/>
       <use x="111.132812" xlink:href="#ArialMT-118"/>
       <use x="161.132812" xlink:href="#ArialMT-101"/>
      </g>
     </g>
    </g>
    <g id="ytick_40">
     <g id="line2d_111">
      <path clip-path="url(#pe05db54a01)" d="M 126 465.081244 
L 312 465.081244 
" style="fill:none;stroke:#ffffff;stroke-linecap:round;"/>
     </g>
     <g id="line2d_112"/>
     <g id="text_47">
      <!-- review -->
      <g style="fill:#262626;" transform="translate(75.657031 470.449603)scale(0.15 -0.15)">
       <use xlink:href="#ArialMT-114"/>
       <use x="33.300781" xlink:href="#ArialMT-101"/>
       <use x="88.916016" xlink:href="#ArialMT-118"/>
       <use x="138.916016" xlink:href="#ArialMT-105"/>
       <use x="161.132812" xlink:href="#ArialMT-101"/>
       <use x="216.748047" xlink:href="#ArialMT-119"/>
      </g>
     </g>
    </g>
   </g>
   <g id="patch_39">
    <path clip-path="url(#pe05db54a01)" d="M 126 311.464032 
L 236.078935 311.464032 
L 236.078935 322.964785 
L 126 322.964785 
z
" style="fill:#4c72b0;"/>
   </g>
   <g id="patch_40">
    <path clip-path="url(#pe05db54a01)" d="M 126 327.89368 
L 133.601457 327.89368 
L 133.601457 339.394434 
L 126 339.394434 
z
" style="fill:#4c72b0;"/>
   </g>
   <g id="patch_41">
    <path clip-path="url(#pe05db54a01)" d="M 126 344.323328 
L 129.345346 344.323328 
L 129.345346 355.824082 
L 126 355.824082 
z
" style="fill:#4c72b0;"/>
   </g>
   <g id="patch_42">
    <path clip-path="url(#pe05db54a01)" d="M 126 360.752977 
L 128.258927 360.752977 
L 128.258927 372.25373 
L 126 372.25373 
z
" style="fill:#4c72b0;"/>
   </g>
   <g id="patch_43">
    <path clip-path="url(#pe05db54a01)" d="M 126 377.182625 
L 128.069129 377.182625 
L 128.069129 388.683379 
L 126 388.683379 
z
" style="fill:#4c72b0;"/>
   </g>
   <g id="patch_44">
    <path clip-path="url(#pe05db54a01)" d="M 126 393.612273 
L 127.866631 393.612273 
L 127.866631 405.113027 
L 126 405.113027 
z
" style="fill:#4c72b0;"/>
   </g>
   <g id="patch_45">
    <path clip-path="url(#pe05db54a01)" d="M 126 410.041922 
L 127.503606 410.041922 
L 127.503606 421.542676 
L 126 421.542676 
z
" style="fill:#4c72b0;"/>
   </g>
   <g id="patch_46">
    <path clip-path="url(#pe05db54a01)" d="M 126 426.47157 
L 127.484886 426.47157 
L 127.484886 437.972324 
L 126 437.972324 
z
" style="fill:#4c72b0;"/>
   </g>
   <g id="patch_47">
    <path clip-path="url(#pe05db54a01)" d="M 126 442.901218 
L 127.464168 442.901218 
L 127.464168 454.401972 
L 126 454.401972 
z
" style="fill:#4c72b0;"/>
   </g>
   <g id="patch_48">
    <path clip-path="url(#pe05db54a01)" d="M 126 459.330867 
L 127.373219 459.330867 
L 127.373219 470.831621 
L 126 470.831621 
z
" style="fill:#4c72b0;"/>
   </g>
   <g id="patch_49">
    <path d="M 126 478.8 
L 312 478.8 
" style="fill:none;"/>
   </g>
   <g id="text_48">
    <!-- Topic 4 -->
    <g style="fill:#262626;" transform="translate(187.321875 297.495652)scale(0.2 -0.2)">
     <use xlink:href="#ArialMT-84"/>
     <use x="49.958984" xlink:href="#ArialMT-111"/>
     <use x="105.574219" xlink:href="#ArialMT-112"/>
     <use x="161.189453" xlink:href="#ArialMT-105"/>
     <use x="183.40625" xlink:href="#ArialMT-99"/>
     <use x="233.40625" xlink:href="#ArialMT-32"/>
     <use x="261.189453" xlink:href="#ArialMT-52"/>
    </g>
   </g>
  </g>
  <g id="axes_5">
   <g id="patch_50">
    <path d="M 423.6 478.8 
L 609.6 478.8 
L 609.6 303.495652 
L 423.6 303.495652 
z
" style="fill:#eaeaf2;"/>
   </g>
   <g id="matplotlib.axis_9">
    <g id="xtick_17">
     <g id="line2d_113">
      <path clip-path="url(#p19f92ed597)" d="M 423.6 478.8 
L 423.6 303.495652 
" style="fill:none;stroke:#ffffff;stroke-linecap:round;"/>
     </g>
     <g id="line2d_114"/>
     <g id="text_49">
      <!-- 0 -->
      <g style="fill:#262626;" transform="translate(419.429297 496.536719)scale(0.15 -0.15)">
       <use xlink:href="#ArialMT-48"/>
      </g>
     </g>
    </g>
    <g id="xtick_18">
     <g id="line2d_115">
      <path clip-path="url(#p19f92ed597)" d="M 474.245805 478.8 
L 474.245805 303.495652 
" style="fill:none;stroke:#ffffff;stroke-linecap:round;"/>
     </g>
     <g id="line2d_116"/>
     <g id="text_50">
      <!-- 2 -->
      <g style="fill:#262626;" transform="translate(470.075101 496.536719)scale(0.15 -0.15)">
       <use xlink:href="#ArialMT-50"/>
      </g>
     </g>
    </g>
    <g id="xtick_19">
     <g id="line2d_117">
      <path clip-path="url(#p19f92ed597)" d="M 524.891609 478.8 
L 524.891609 303.495652 
" style="fill:none;stroke:#ffffff;stroke-linecap:round;"/>
     </g>
     <g id="line2d_118"/>
     <g id="text_51">
      <!-- 4 -->
      <g style="fill:#262626;" transform="translate(520.720906 496.536719)scale(0.15 -0.15)">
       <use xlink:href="#ArialMT-52"/>
      </g>
     </g>
    </g>
    <g id="xtick_20">
     <g id="line2d_119">
      <path clip-path="url(#p19f92ed597)" d="M 575.537414 478.8 
L 575.537414 303.495652 
" style="fill:none;stroke:#ffffff;stroke-linecap:round;"/>
     </g>
     <g id="line2d_120"/>
     <g id="text_52">
      <!-- 6 -->
      <g style="fill:#262626;" transform="translate(571.366711 496.536719)scale(0.15 -0.15)">
       <use xlink:href="#ArialMT-54"/>
      </g>
     </g>
    </g>
   </g>
   <g id="matplotlib.axis_10">
    <g id="ytick_41">
     <g id="line2d_121">
      <path clip-path="url(#p19f92ed597)" d="M 423.6 317.214409 
L 609.6 317.214409 
" style="fill:none;stroke:#ffffff;stroke-linecap:round;"/>
     </g>
     <g id="line2d_122"/>
     <g id="text_53">
      <!-- host -->
      <g style="fill:#262626;" transform="translate(388.25 322.582768)scale(0.15 -0.15)">
       <use xlink:href="#ArialMT-104"/>
       <use x="55.615234" xlink:href="#ArialMT-111"/>
       <use x="111.230469" xlink:href="#ArialMT-115"/>
       <use x="161.230469" xlink:href="#ArialMT-116"/>
      </g>
     </g>
    </g>
    <g id="ytick_42">
     <g id="line2d_123">
      <path clip-path="url(#p19f92ed597)" d="M 423.6 333.644057 
L 609.6 333.644057 
" style="fill:none;stroke:#ffffff;stroke-linecap:round;"/>
     </g>
     <g id="line2d_124"/>
     <g id="text_54">
      <!-- topic -->
      <g style="fill:#262626;" transform="translate(384.917188 339.012416)scale(0.15 -0.15)">
       <use xlink:href="#ArialMT-116"/>
       <use x="27.783203" xlink:href="#ArialMT-111"/>
       <use x="83.398438" xlink:href="#ArialMT-112"/>
       <use x="139.013672" xlink:href="#ArialMT-105"/>
       <use x="161.230469" xlink:href="#ArialMT-99"/>
      </g>
     </g>
    </g>
    <g id="ytick_43">
     <g id="line2d_125">
      <path clip-path="url(#p19f92ed597)" d="M 423.6 350.073705 
L 609.6 350.073705 
" style="fill:none;stroke:#ffffff;stroke-linecap:round;"/>
     </g>
     <g id="line2d_126"/>
     <g id="text_55">
      <!-- guest -->
      <g style="fill:#262626;" transform="translate(379.908594 355.354174)scale(0.15 -0.15)">
       <use xlink:href="#ArialMT-103"/>
       <use x="55.615234" xlink:href="#ArialMT-117"/>
       <use x="111.230469" xlink:href="#ArialMT-101"/>
       <use x="166.845703" xlink:href="#ArialMT-115"/>
       <use x="216.845703" xlink:href="#ArialMT-116"/>
      </g>
     </g>
    </g>
    <g id="ytick_44">
     <g id="line2d_127">
      <path clip-path="url(#p19f92ed597)" d="M 423.6 366.503354 
L 609.6 366.503354 
" style="fill:none;stroke:#ffffff;stroke-linecap:round;"/>
     </g>
     <g id="line2d_128"/>
     <g id="text_56">
      <!-- fun -->
      <g style="fill:#262626;" transform="translate(395.75 371.871713)scale(0.15 -0.15)">
       <use xlink:href="#ArialMT-102"/>
       <use x="27.783203" xlink:href="#ArialMT-117"/>
       <use x="83.398438" xlink:href="#ArialMT-110"/>
      </g>
     </g>
    </g>
    <g id="ytick_45">
     <g id="line2d_129">
      <path clip-path="url(#p19f92ed597)" d="M 423.6 382.933002 
L 609.6 382.933002 
" style="fill:none;stroke:#ffffff;stroke-linecap:round;"/>
     </g>
     <g id="line2d_130"/>
     <g id="text_57">
      <!-- content -->
      <g style="fill:#262626;" transform="translate(367.4 388.301361)scale(0.15 -0.15)">
       <use xlink:href="#ArialMT-99"/>
       <use x="50" xlink:href="#ArialMT-111"/>
       <use x="105.615234" xlink:href="#ArialMT-110"/>
       <use x="161.230469" xlink:href="#ArialMT-116"/>
       <use x="189.013672" xlink:href="#ArialMT-101"/>
       <use x="244.628906" xlink:href="#ArialMT-110"/>
       <use x="300.244141" xlink:href="#ArialMT-116"/>
      </g>
     </g>
    </g>
    <g id="ytick_46">
     <g id="line2d_131">
      <path clip-path="url(#p19f92ed597)" d="M 423.6 399.36265 
L 609.6 399.36265 
" style="fill:none;stroke:#ffffff;stroke-linecap:round;"/>
     </g>
     <g id="line2d_132"/>
     <g id="text_58">
      <!-- conversation -->
      <g style="fill:#262626;" transform="translate(331.557031 404.73101)scale(0.15 -0.15)">
       <use xlink:href="#ArialMT-99"/>
       <use x="50" xlink:href="#ArialMT-111"/>
       <use x="105.615234" xlink:href="#ArialMT-110"/>
       <use x="161.230469" xlink:href="#ArialMT-118"/>
       <use x="211.230469" xlink:href="#ArialMT-101"/>
       <use x="266.845703" xlink:href="#ArialMT-114"/>
       <use x="300.146484" xlink:href="#ArialMT-115"/>
       <use x="350.146484" xlink:href="#ArialMT-97"/>
       <use x="405.761719" xlink:href="#ArialMT-116"/>
       <use x="433.544922" xlink:href="#ArialMT-105"/>
       <use x="455.761719" xlink:href="#ArialMT-111"/>
       <use x="511.376953" xlink:href="#ArialMT-110"/>
      </g>
     </g>
    </g>
    <g id="ytick_47">
     <g id="line2d_133">
      <path clip-path="url(#p19f92ed597)" d="M 423.6 415.792299 
L 609.6 415.792299 
" style="fill:none;stroke:#ffffff;stroke-linecap:round;"/>
     </g>
     <g id="line2d_134"/>
     <g id="text_59">
      <!-- information -->
      <g style="fill:#262626;" transform="translate(342.403906 421.160658)scale(0.15 -0.15)">
       <use xlink:href="#ArialMT-105"/>
       <use x="22.216797" xlink:href="#ArialMT-110"/>
       <use x="77.832031" xlink:href="#ArialMT-102"/>
       <use x="105.615234" xlink:href="#ArialMT-111"/>
       <use x="161.230469" xlink:href="#ArialMT-114"/>
       <use x="194.53125" xlink:href="#ArialMT-109"/>
       <use x="277.832031" xlink:href="#ArialMT-97"/>
       <use x="333.447266" xlink:href="#ArialMT-116"/>
       <use x="361.230469" xlink:href="#ArialMT-105"/>
       <use x="383.447266" xlink:href="#ArialMT-111"/>
       <use x="439.0625" xlink:href="#ArialMT-110"/>
      </g>
     </g>
    </g>
    <g id="ytick_48">
     <g id="line2d_135">
      <path clip-path="url(#p19f92ed597)" d="M 423.6 432.221947 
L 609.6 432.221947 
" style="fill:none;stroke:#ffffff;stroke-linecap:round;"/>
     </g>
     <g id="line2d_136"/>
     <g id="text_60">
      <!-- interview -->
      <g style="fill:#262626;" transform="translate(357.415625 437.590306)scale(0.15 -0.15)">
       <use xlink:href="#ArialMT-105"/>
       <use x="22.216797" xlink:href="#ArialMT-110"/>
       <use x="77.832031" xlink:href="#ArialMT-116"/>
       <use x="105.615234" xlink:href="#ArialMT-101"/>
       <use x="161.230469" xlink:href="#ArialMT-114"/>
       <use x="194.53125" xlink:href="#ArialMT-118"/>
       <use x="244.53125" xlink:href="#ArialMT-105"/>
       <use x="266.748047" xlink:href="#ArialMT-101"/>
       <use x="322.363281" xlink:href="#ArialMT-119"/>
      </g>
     </g>
    </g>
    <g id="ytick_49">
     <g id="line2d_137">
      <path clip-path="url(#p19f92ed597)" d="M 423.6 448.651595 
L 609.6 448.651595 
" style="fill:none;stroke:#ffffff;stroke-linecap:round;"/>
     </g>
     <g id="line2d_138"/>
     <g id="text_61">
      <!-- job -->
      <g style="fill:#262626;" transform="translate(396.584375 454.019955)scale(0.15 -0.15)">
       <use xlink:href="#ArialMT-106"/>
       <use x="22.216797" xlink:href="#ArialMT-111"/>
       <use x="77.832031" xlink:href="#ArialMT-98"/>
      </g>
     </g>
    </g>
    <g id="ytick_50">
     <g id="line2d_139">
      <path clip-path="url(#p19f92ed597)" d="M 423.6 465.081244 
L 609.6 465.081244 
" style="fill:none;stroke:#ffffff;stroke-linecap:round;"/>
     </g>
     <g id="line2d_140"/>
     <g id="text_62">
      <!-- question -->
      <g style="fill:#262626;" transform="translate(359.892969 470.449603)scale(0.15 -0.15)">
       <defs>
        <path d="M 39.65625 -19.875 
L 39.65625 5.515625 
Q 37.59375 2.640625 33.90625 0.734375 
Q 30.21875 -1.171875 26.078125 -1.171875 
Q 16.84375 -1.171875 10.171875 6.203125 
Q 3.515625 13.578125 3.515625 26.421875 
Q 3.515625 34.234375 6.21875 40.421875 
Q 8.9375 46.625 14.078125 49.828125 
Q 19.234375 53.03125 25.390625 53.03125 
Q 35.015625 53.03125 40.53125 44.921875 
L 40.53125 51.859375 
L 48.4375 51.859375 
L 48.4375 -19.875 
z
M 12.546875 26.078125 
Q 12.546875 16.0625 16.75 11.0625 
Q 20.953125 6.0625 26.8125 6.0625 
Q 32.421875 6.0625 36.46875 10.8125 
Q 40.53125 15.578125 40.53125 25.296875 
Q 40.53125 35.640625 36.25 40.859375 
Q 31.984375 46.09375 26.21875 46.09375 
Q 20.515625 46.09375 16.53125 41.234375 
Q 12.546875 36.375 12.546875 26.078125 
z
" id="ArialMT-113"/>
       </defs>
       <use xlink:href="#ArialMT-113"/>
       <use x="55.615234" xlink:href="#ArialMT-117"/>
       <use x="111.230469" xlink:href="#ArialMT-101"/>
       <use x="166.845703" xlink:href="#ArialMT-115"/>
       <use x="216.845703" xlink:href="#ArialMT-116"/>
       <use x="244.628906" xlink:href="#ArialMT-105"/>
       <use x="266.845703" xlink:href="#ArialMT-111"/>
       <use x="322.460938" xlink:href="#ArialMT-110"/>
      </g>
     </g>
    </g>
   </g>
   <g id="patch_51">
    <path clip-path="url(#p19f92ed597)" d="M 423.6 311.464032 
L 487.988749 311.464032 
L 487.988749 322.964785 
L 423.6 322.964785 
z
" style="fill:#4c72b0;"/>
   </g>
   <g id="patch_52">
    <path clip-path="url(#p19f92ed597)" d="M 423.6 327.89368 
L 480.881347 327.89368 
L 480.881347 339.394434 
L 423.6 339.394434 
z
" style="fill:#4c72b0;"/>
   </g>
   <g id="patch_53">
    <path clip-path="url(#p19f92ed597)" d="M 423.6 344.323328 
L 463.613498 344.323328 
L 463.613498 355.824082 
L 423.6 355.824082 
z
" style="fill:#4c72b0;"/>
   </g>
   <g id="patch_54">
    <path clip-path="url(#p19f92ed597)" d="M 423.6 360.752977 
L 454.400271 360.752977 
L 454.400271 372.25373 
L 423.6 372.25373 
z
" style="fill:#4c72b0;"/>
   </g>
   <g id="patch_55">
    <path clip-path="url(#p19f92ed597)" d="M 423.6 377.182625 
L 453.468789 377.182625 
L 453.468789 388.683379 
L 423.6 388.683379 
z
" style="fill:#4c72b0;"/>
   </g>
   <g id="patch_56">
    <path clip-path="url(#p19f92ed597)" d="M 423.6 393.612273 
L 444.255097 393.612273 
L 444.255097 405.113027 
L 423.6 405.113027 
z
" style="fill:#4c72b0;"/>
   </g>
   <g id="patch_57">
    <path clip-path="url(#p19f92ed597)" d="M 423.6 410.041922 
L 442.747521 410.041922 
L 442.747521 421.542676 
L 423.6 421.542676 
z
" style="fill:#4c72b0;"/>
   </g>
   <g id="patch_58">
    <path clip-path="url(#p19f92ed597)" d="M 423.6 426.47157 
L 442.306895 426.47157 
L 442.306895 437.972324 
L 423.6 437.972324 
z
" style="fill:#4c72b0;"/>
   </g>
   <g id="patch_59">
    <path clip-path="url(#p19f92ed597)" d="M 423.6 442.901218 
L 435.725386 442.901218 
L 435.725386 454.401972 
L 423.6 454.401972 
z
" style="fill:#4c72b0;"/>
   </g>
   <g id="patch_60">
    <path clip-path="url(#p19f92ed597)" d="M 423.6 459.330867 
L 434.208635 459.330867 
L 434.208635 470.831621 
L 423.6 470.831621 
z
" style="fill:#4c72b0;"/>
   </g>
   <g id="patch_61">
    <path d="M 423.6 478.8 
L 609.6 478.8 
" style="fill:none;"/>
   </g>
   <g id="text_63">
    <!-- Topic 5 -->
    <g style="fill:#262626;" transform="translate(484.921875 297.495652)scale(0.2 -0.2)">
     <defs>
      <path d="M 4.15625 18.75 
L 13.375 19.53125 
Q 14.40625 12.796875 18.140625 9.390625 
Q 21.875 6 27.15625 6 
Q 33.5 6 37.890625 10.78125 
Q 42.28125 15.578125 42.28125 23.484375 
Q 42.28125 31 38.0625 35.34375 
Q 33.84375 39.703125 27 39.703125 
Q 22.75 39.703125 19.328125 37.765625 
Q 15.921875 35.84375 13.96875 32.765625 
L 5.71875 33.84375 
L 12.640625 70.609375 
L 48.25 70.609375 
L 48.25 62.203125 
L 19.671875 62.203125 
L 15.828125 42.96875 
Q 22.265625 47.46875 29.34375 47.46875 
Q 38.71875 47.46875 45.15625 40.96875 
Q 51.609375 34.46875 51.609375 24.265625 
Q 51.609375 14.546875 45.953125 7.46875 
Q 39.0625 -1.21875 27.15625 -1.21875 
Q 17.390625 -1.21875 11.203125 4.25 
Q 5.03125 9.71875 4.15625 18.75 
z
" id="ArialMT-53"/>
     </defs>
     <use xlink:href="#ArialMT-84"/>
     <use x="49.958984" xlink:href="#ArialMT-111"/>
     <use x="105.574219" xlink:href="#ArialMT-112"/>
     <use x="161.189453" xlink:href="#ArialMT-105"/>
     <use x="183.40625" xlink:href="#ArialMT-99"/>
     <use x="233.40625" xlink:href="#ArialMT-32"/>
     <use x="261.189453" xlink:href="#ArialMT-53"/>
    </g>
   </g>
  </g>
  <g id="axes_6">
   <g id="patch_62">
    <path d="M 721.2 478.8 
L 907.2 478.8 
L 907.2 303.495652 
L 721.2 303.495652 
z
" style="fill:#eaeaf2;"/>
   </g>
   <g id="matplotlib.axis_11">
    <g id="xtick_21">
     <g id="line2d_141">
      <path clip-path="url(#p6217d9b86d)" d="M 721.2 478.8 
L 721.2 303.495652 
" style="fill:none;stroke:#ffffff;stroke-linecap:round;"/>
     </g>
     <g id="line2d_142"/>
     <g id="text_64">
      <!-- 0 -->
      <g style="fill:#262626;" transform="translate(717.029297 496.536719)scale(0.15 -0.15)">
       <use xlink:href="#ArialMT-48"/>
      </g>
     </g>
    </g>
    <g id="xtick_22">
     <g id="line2d_143">
      <path clip-path="url(#p6217d9b86d)" d="M 771.845805 478.8 
L 771.845805 303.495652 
" style="fill:none;stroke:#ffffff;stroke-linecap:round;"/>
     </g>
     <g id="line2d_144"/>
     <g id="text_65">
      <!-- 2 -->
      <g style="fill:#262626;" transform="translate(767.675101 496.536719)scale(0.15 -0.15)">
       <use xlink:href="#ArialMT-50"/>
      </g>
     </g>
    </g>
    <g id="xtick_23">
     <g id="line2d_145">
      <path clip-path="url(#p6217d9b86d)" d="M 822.491609 478.8 
L 822.491609 303.495652 
" style="fill:none;stroke:#ffffff;stroke-linecap:round;"/>
     </g>
     <g id="line2d_146"/>
     <g id="text_66">
      <!-- 4 -->
      <g style="fill:#262626;" transform="translate(818.320906 496.536719)scale(0.15 -0.15)">
       <use xlink:href="#ArialMT-52"/>
      </g>
     </g>
    </g>
    <g id="xtick_24">
     <g id="line2d_147">
      <path clip-path="url(#p6217d9b86d)" d="M 873.137414 478.8 
L 873.137414 303.495652 
" style="fill:none;stroke:#ffffff;stroke-linecap:round;"/>
     </g>
     <g id="line2d_148"/>
     <g id="text_67">
      <!-- 6 -->
      <g style="fill:#262626;" transform="translate(868.966711 496.536719)scale(0.15 -0.15)">
       <use xlink:href="#ArialMT-54"/>
      </g>
     </g>
    </g>
   </g>
   <g id="matplotlib.axis_12">
    <g id="ytick_51">
     <g id="line2d_149">
      <path clip-path="url(#p6217d9b86d)" d="M 721.2 317.214409 
L 907.2 317.214409 
" style="fill:none;stroke:#ffffff;stroke-linecap:round;"/>
     </g>
     <g id="line2d_150"/>
     <g id="text_68">
      <!-- life -->
      <g style="fill:#262626;" transform="translate(695.025781 322.582768)scale(0.15 -0.15)">
       <use xlink:href="#ArialMT-108"/>
       <use x="22.216797" xlink:href="#ArialMT-105"/>
       <use x="44.433594" xlink:href="#ArialMT-102"/>
       <use x="72.216797" xlink:href="#ArialMT-101"/>
      </g>
     </g>
    </g>
    <g id="ytick_52">
     <g id="line2d_151">
      <path clip-path="url(#p6217d9b86d)" d="M 721.2 333.644057 
L 907.2 333.644057 
" style="fill:none;stroke:#ffffff;stroke-linecap:round;"/>
     </g>
     <g id="line2d_152"/>
     <g id="text_69">
      <!-- week -->
      <g style="fill:#262626;" transform="translate(679.184375 339.012416)scale(0.15 -0.15)">
       <use xlink:href="#ArialMT-119"/>
       <use x="72.216797" xlink:href="#ArialMT-101"/>
       <use x="127.832031" xlink:href="#ArialMT-101"/>
       <use x="183.447266" xlink:href="#ArialMT-107"/>
      </g>
     </g>
    </g>
    <g id="ytick_53">
     <g id="line2d_153">
      <path clip-path="url(#p6217d9b86d)" d="M 721.2 350.073705 
L 907.2 350.073705 
" style="fill:none;stroke:#ffffff;stroke-linecap:round;"/>
     </g>
     <g id="line2d_154"/>
     <g id="text_70">
      <!-- day -->
      <g style="fill:#262626;" transform="translate(690.017188 355.442065)scale(0.15 -0.15)">
       <use xlink:href="#ArialMT-100"/>
       <use x="55.615234" xlink:href="#ArialMT-97"/>
       <use x="111.230469" xlink:href="#ArialMT-121"/>
      </g>
     </g>
    </g>
    <g id="ytick_54">
     <g id="line2d_155">
      <path clip-path="url(#p6217d9b86d)" d="M 721.2 366.503354 
L 907.2 366.503354 
" style="fill:none;stroke:#ffffff;stroke-linecap:round;"/>
     </g>
     <g id="line2d_156"/>
     <g id="text_71">
      <!-- friend -->
      <g style="fill:#262626;" transform="translate(676.68125 371.871713)scale(0.15 -0.15)">
       <use xlink:href="#ArialMT-102"/>
       <use x="27.783203" xlink:href="#ArialMT-114"/>
       <use x="61.083984" xlink:href="#ArialMT-105"/>
       <use x="83.300781" xlink:href="#ArialMT-101"/>
       <use x="138.916016" xlink:href="#ArialMT-110"/>
       <use x="194.53125" xlink:href="#ArialMT-100"/>
      </g>
     </g>
    </g>
    <g id="ytick_55">
     <g id="line2d_157">
      <path clip-path="url(#p6217d9b86d)" d="M 721.2 382.933002 
L 907.2 382.933002 
" style="fill:none;stroke:#ffffff;stroke-linecap:round;"/>
     </g>
     <g id="line2d_158"/>
     <g id="text_72">
      <!-- year -->
      <g style="fill:#262626;" transform="translate(685.022656 388.213471)scale(0.15 -0.15)">
       <use xlink:href="#ArialMT-121"/>
       <use x="50" xlink:href="#ArialMT-101"/>
       <use x="105.615234" xlink:href="#ArialMT-97"/>
       <use x="161.230469" xlink:href="#ArialMT-114"/>
      </g>
     </g>
    </g>
    <g id="ytick_56">
     <g id="line2d_159">
      <path clip-path="url(#p6217d9b86d)" d="M 721.2 399.36265 
L 907.2 399.36265 
" style="fill:none;stroke:#ffffff;stroke-linecap:round;"/>
     </g>
     <g id="line2d_160"/>
     <g id="text_73">
      <!-- world -->
      <g style="fill:#262626;" transform="translate(678.357031 404.73101)scale(0.15 -0.15)">
       <use xlink:href="#ArialMT-119"/>
       <use x="72.216797" xlink:href="#ArialMT-111"/>
       <use x="127.832031" xlink:href="#ArialMT-114"/>
       <use x="161.132812" xlink:href="#ArialMT-108"/>
       <use x="183.349609" xlink:href="#ArialMT-100"/>
      </g>
     </g>
    </g>
    <g id="ytick_57">
     <g id="line2d_161">
      <path clip-path="url(#p6217d9b86d)" d="M 721.2 415.792299 
L 907.2 415.792299 
" style="fill:none;stroke:#ffffff;stroke-linecap:round;"/>
     </g>
     <g id="line2d_162"/>
     <g id="text_74">
      <!-- business -->
      <g style="fill:#262626;" transform="translate(655.001563 421.160658)scale(0.15 -0.15)">
       <use xlink:href="#ArialMT-98"/>
       <use x="55.615234" xlink:href="#ArialMT-117"/>
       <use x="111.230469" xlink:href="#ArialMT-115"/>
       <use x="161.230469" xlink:href="#ArialMT-105"/>
       <use x="183.447266" xlink:href="#ArialMT-110"/>
       <use x="239.0625" xlink:href="#ArialMT-101"/>
       <use x="294.677734" xlink:href="#ArialMT-115"/>
       <use x="344.677734" xlink:href="#ArialMT-115"/>
      </g>
     </g>
    </g>
    <g id="ytick_58">
     <g id="line2d_163">
      <path clip-path="url(#p6217d9b86d)" d="M 721.2 432.221947 
L 907.2 432.221947 
" style="fill:none;stroke:#ffffff;stroke-linecap:round;"/>
     </g>
     <g id="line2d_164"/>
     <g id="text_75">
      <!-- advice -->
      <g style="fill:#262626;" transform="translate(670.842969 437.590306)scale(0.15 -0.15)">
       <use xlink:href="#ArialMT-97"/>
       <use x="55.615234" xlink:href="#ArialMT-100"/>
       <use x="111.230469" xlink:href="#ArialMT-118"/>
       <use x="161.230469" xlink:href="#ArialMT-105"/>
       <use x="183.447266" xlink:href="#ArialMT-99"/>
       <use x="233.447266" xlink:href="#ArialMT-101"/>
      </g>
     </g>
    </g>
    <g id="ytick_59">
     <g id="line2d_165">
      <path clip-path="url(#p6217d9b86d)" d="M 721.2 448.651595 
L 907.2 448.651595 
" style="fill:none;stroke:#ffffff;stroke-linecap:round;"/>
     </g>
     <g id="line2d_166"/>
     <g id="text_76">
      <!-- woman -->
      <g style="fill:#262626;" transform="translate(665.848438 454.019955)scale(0.15 -0.15)">
       <use xlink:href="#ArialMT-119"/>
       <use x="72.216797" xlink:href="#ArialMT-111"/>
       <use x="127.832031" xlink:href="#ArialMT-109"/>
       <use x="211.132812" xlink:href="#ArialMT-97"/>
       <use x="266.748047" xlink:href="#ArialMT-110"/>
      </g>
     </g>
    </g>
    <g id="ytick_60">
     <g id="line2d_167">
      <path clip-path="url(#p6217d9b86d)" d="M 721.2 465.081244 
L 907.2 465.081244 
" style="fill:none;stroke:#ffffff;stroke-linecap:round;"/>
     </g>
     <g id="line2d_168"/>
     <g id="text_77">
      <!-- god -->
      <g style="fill:#262626;" transform="translate(689.175781 470.449603)scale(0.15 -0.15)">
       <use xlink:href="#ArialMT-103"/>
       <use x="55.615234" xlink:href="#ArialMT-111"/>
       <use x="111.230469" xlink:href="#ArialMT-100"/>
      </g>
     </g>
    </g>
   </g>
   <g id="patch_63">
    <path clip-path="url(#p6217d9b86d)" d="M 721.2 311.464032 
L 806.345793 311.464032 
L 806.345793 322.964785 
L 721.2 322.964785 
z
" style="fill:#4c72b0;"/>
   </g>
   <g id="patch_64">
    <path clip-path="url(#p6217d9b86d)" d="M 721.2 327.89368 
L 770.979463 327.89368 
L 770.979463 339.394434 
L 721.2 339.394434 
z
" style="fill:#4c72b0;"/>
   </g>
   <g id="patch_65">
    <path clip-path="url(#p6217d9b86d)" d="M 721.2 344.323328 
L 766.982639 344.323328 
L 766.982639 355.824082 
L 721.2 355.824082 
z
" style="fill:#4c72b0;"/>
   </g>
   <g id="patch_66">
    <path clip-path="url(#p6217d9b86d)" d="M 721.2 360.752977 
L 735.577666 360.752977 
L 735.577666 372.25373 
L 721.2 372.25373 
z
" style="fill:#4c72b0;"/>
   </g>
   <g id="patch_67">
    <path clip-path="url(#p6217d9b86d)" d="M 721.2 377.182625 
L 735.569991 377.182625 
L 735.569991 388.683379 
L 721.2 388.683379 
z
" style="fill:#4c72b0;"/>
   </g>
   <g id="patch_68">
    <path clip-path="url(#p6217d9b86d)" d="M 721.2 393.612273 
L 730.751764 393.612273 
L 730.751764 405.113027 
L 721.2 405.113027 
z
" style="fill:#4c72b0;"/>
   </g>
   <g id="patch_69">
    <path clip-path="url(#p6217d9b86d)" d="M 721.2 410.041922 
L 729.311634 410.041922 
L 729.311634 421.542676 
L 721.2 421.542676 
z
" style="fill:#4c72b0;"/>
   </g>
   <g id="patch_70">
    <path clip-path="url(#p6217d9b86d)" d="M 721.2 426.47157 
L 729.173463 426.47157 
L 729.173463 437.972324 
L 721.2 437.972324 
z
" style="fill:#4c72b0;"/>
   </g>
   <g id="patch_71">
    <path clip-path="url(#p6217d9b86d)" d="M 721.2 442.901218 
L 728.808808 442.901218 
L 728.808808 454.401972 
L 721.2 454.401972 
z
" style="fill:#4c72b0;"/>
   </g>
   <g id="patch_72">
    <path clip-path="url(#p6217d9b86d)" d="M 721.2 459.330867 
L 727.6075 459.330867 
L 727.6075 470.831621 
L 721.2 470.831621 
z
" style="fill:#4c72b0;"/>
   </g>
   <g id="patch_73">
    <path d="M 721.2 478.8 
L 907.2 478.8 
" style="fill:none;"/>
   </g>
   <g id="text_78">
    <!-- Topic 6 -->
    <g style="fill:#262626;" transform="translate(782.521875 297.495652)scale(0.2 -0.2)">
     <use xlink:href="#ArialMT-84"/>
     <use x="49.958984" xlink:href="#ArialMT-111"/>
     <use x="105.574219" xlink:href="#ArialMT-112"/>
     <use x="161.189453" xlink:href="#ArialMT-105"/>
     <use x="183.40625" xlink:href="#ArialMT-99"/>
     <use x="233.40625" xlink:href="#ArialMT-32"/>
     <use x="261.189453" xlink:href="#ArialMT-54"/>
    </g>
   </g>
  </g>
  <g id="text_79">
   <!-- Six Topics from NMF Topic Modeling -->
   <g style="fill:#262626;" transform="translate(261.979688 31.919062)scale(0.3 -0.3)">
    <defs>
     <path d="M 4.5 23 
L 13.421875 23.78125 
Q 14.0625 18.40625 16.375 14.96875 
Q 18.703125 11.53125 23.578125 9.40625 
Q 28.46875 7.28125 34.578125 7.28125 
Q 39.984375 7.28125 44.140625 8.890625 
Q 48.296875 10.5 50.3125 13.296875 
Q 52.34375 16.109375 52.34375 19.4375 
Q 52.34375 22.796875 50.390625 25.3125 
Q 48.4375 27.828125 43.953125 29.546875 
Q 41.0625 30.671875 31.203125 33.03125 
Q 21.34375 35.40625 17.390625 37.5 
Q 12.25 40.1875 9.734375 44.15625 
Q 7.234375 48.140625 7.234375 53.078125 
Q 7.234375 58.5 10.296875 63.203125 
Q 13.375 67.921875 19.28125 70.359375 
Q 25.203125 72.796875 32.421875 72.796875 
Q 40.375 72.796875 46.453125 70.234375 
Q 52.546875 67.671875 55.8125 62.6875 
Q 59.078125 57.71875 59.328125 51.421875 
L 50.25 50.734375 
Q 49.515625 57.515625 45.28125 60.984375 
Q 41.0625 64.453125 32.8125 64.453125 
Q 24.21875 64.453125 20.28125 61.296875 
Q 16.359375 58.15625 16.359375 53.71875 
Q 16.359375 49.859375 19.140625 47.359375 
Q 21.875 44.875 33.421875 42.265625 
Q 44.96875 39.65625 49.265625 37.703125 
Q 55.515625 34.8125 58.484375 30.390625 
Q 61.46875 25.984375 61.46875 20.21875 
Q 61.46875 14.5 58.203125 9.4375 
Q 54.9375 4.390625 48.796875 1.578125 
Q 42.671875 -1.21875 35.015625 -1.21875 
Q 25.296875 -1.21875 18.71875 1.609375 
Q 12.15625 4.4375 8.421875 10.125 
Q 4.6875 15.828125 4.5 23 
z
" id="ArialMT-83"/>
     <path d="M 0.734375 0 
L 19.671875 26.953125 
L 2.15625 51.859375 
L 13.140625 51.859375 
L 21.09375 39.703125 
Q 23.34375 36.234375 24.703125 33.890625 
Q 26.859375 37.109375 28.65625 39.59375 
L 37.40625 51.859375 
L 47.90625 51.859375 
L 29.984375 27.4375 
L 49.265625 0 
L 38.484375 0 
L 27.828125 16.109375 
L 25 20.453125 
L 11.375 0 
z
" id="ArialMT-120"/>
     <path d="M 7.625 0 
L 7.625 71.578125 
L 17.328125 71.578125 
L 54.9375 15.375 
L 54.9375 71.578125 
L 64.015625 71.578125 
L 64.015625 0 
L 54.296875 0 
L 16.703125 56.25 
L 16.703125 0 
z
" id="ArialMT-78"/>
     <path d="M 7.421875 0 
L 7.421875 71.578125 
L 21.6875 71.578125 
L 38.625 20.90625 
Q 40.96875 13.8125 42.046875 10.296875 
Q 43.265625 14.203125 45.84375 21.78125 
L 62.984375 71.578125 
L 75.734375 71.578125 
L 75.734375 0 
L 66.609375 0 
L 66.609375 59.90625 
L 45.796875 0 
L 37.25 0 
L 16.546875 60.9375 
L 16.546875 0 
z
" id="ArialMT-77"/>
     <path d="M 8.203125 0 
L 8.203125 71.578125 
L 56.5 71.578125 
L 56.5 63.140625 
L 17.671875 63.140625 
L 17.671875 40.96875 
L 51.265625 40.96875 
L 51.265625 32.515625 
L 17.671875 32.515625 
L 17.671875 0 
z
" id="ArialMT-70"/>
    </defs>
    <use xlink:href="#ArialMT-83"/>
    <use x="66.699219" xlink:href="#ArialMT-105"/>
    <use x="88.916016" xlink:href="#ArialMT-120"/>
    <use x="138.916016" xlink:href="#ArialMT-32"/>
    <use x="164.949219" xlink:href="#ArialMT-84"/>
    <use x="214.908203" xlink:href="#ArialMT-111"/>
    <use x="270.523438" xlink:href="#ArialMT-112"/>
    <use x="326.138672" xlink:href="#ArialMT-105"/>
    <use x="348.355469" xlink:href="#ArialMT-99"/>
    <use x="398.355469" xlink:href="#ArialMT-115"/>
    <use x="448.355469" xlink:href="#ArialMT-32"/>
    <use x="476.138672" xlink:href="#ArialMT-102"/>
    <use x="503.921875" xlink:href="#ArialMT-114"/>
    <use x="537.222656" xlink:href="#ArialMT-111"/>
    <use x="592.837891" xlink:href="#ArialMT-109"/>
    <use x="676.138672" xlink:href="#ArialMT-32"/>
    <use x="703.921875" xlink:href="#ArialMT-78"/>
    <use x="776.138672" xlink:href="#ArialMT-77"/>
    <use x="859.439453" xlink:href="#ArialMT-70"/>
    <use x="920.523438" xlink:href="#ArialMT-32"/>
    <use x="946.556641" xlink:href="#ArialMT-84"/>
    <use x="996.515625" xlink:href="#ArialMT-111"/>
    <use x="1052.130859" xlink:href="#ArialMT-112"/>
    <use x="1107.746094" xlink:href="#ArialMT-105"/>
    <use x="1129.962891" xlink:href="#ArialMT-99"/>
    <use x="1179.962891" xlink:href="#ArialMT-32"/>
    <use x="1207.746094" xlink:href="#ArialMT-77"/>
    <use x="1291.046875" xlink:href="#ArialMT-111"/>
    <use x="1346.662109" xlink:href="#ArialMT-100"/>
    <use x="1402.277344" xlink:href="#ArialMT-101"/>
    <use x="1457.892578" xlink:href="#ArialMT-108"/>
    <use x="1480.109375" xlink:href="#ArialMT-105"/>
    <use x="1502.326172" xlink:href="#ArialMT-110"/>
    <use x="1557.941406" xlink:href="#ArialMT-103"/>
   </g>
  </g>
 </g>
 <defs>
  <clipPath id="p8405c293f8">
   <rect height="175.304348" width="186" x="126" y="75.6"/>
  </clipPath>
  <clipPath id="pd3b2043990">
   <rect height="175.304348" width="186" x="423.6" y="75.6"/>
  </clipPath>
  <clipPath id="pd6bd4a7d79">
   <rect height="175.304348" width="186" x="721.2" y="75.6"/>
  </clipPath>
  <clipPath id="pe05db54a01">
   <rect height="175.304348" width="186" x="126" y="303.495652"/>
  </clipPath>
  <clipPath id="p19f92ed597">
   <rect height="175.304348" width="186" x="423.6" y="303.495652"/>
  </clipPath>
  <clipPath id="p6217d9b86d">
   <rect height="175.304348" width="186" x="721.2" y="303.495652"/>
  </clipPath>
 </defs>
</svg>
